<svg width="480" height="322" fill="none" xmlns="http://www.w3.org/2000/svg"><g clip-path="url(#clip0)"><path d="M459.107 143.879a108.886 108.886 0 00-6.008-7.677 112.575 112.575 0 00-39.123-29.402 110.455 110.455 0 00-12.634-4.82 107.168 107.168 0 00-9.124-2.424l-5.834-1.144a112.505 112.505 0 00-84.493 19.798 109.01 109.01 0 00-8.808-.707 146.382 146.382 0 00-3.539-8.695 151.277 151.277 0 00-26.651-40.735 152.749 152.749 0 00-22.852-20.433 150.781 150.781 0 00-88.582-28.783h-.214c-2.36 0-4.705.055-7.035.165l-8.998.679c-.739.077-1.478.158-2.214.25l-9.095 1.374c-2.408.437-4.796.934-7.163 1.491a151.59 151.59 0 00-82.073 50.93 144.926 144.926 0 00-7.273 9.547 142.604 142.604 0 00-3.192 4.731c-.497.768-.986 1.536-1.47 2.311a140.707 140.707 0 00-4.55 7.835 151 151 0 00-4.347 8.687 149.715 149.715 0 00-9.992 29.288 146.915 146.915 0 00-1.617 8.025 120.175 120.175 0 00-.509 3.111l-.048.347c-.404 2.829-.764 5.657-1.026 8.538l-.352.032c.028.085.057.17.077.259.076.045.154.087.234.125-.032.367-.06.735-.089 1.099.02.326-.005.654-.076.974-.291 3.771-.437 7.587-.437 11.45a150.474 150.474 0 0017.188 70.085l.158.299a151.854 151.854 0 0048.34 54.327 150.296 150.296 0 0053.385 23.099l3.341.683c4.617.894 9.308 1.568 14.073 2.02 4.849.469 9.768.705 14.76.707 6.937.003 13.866-.47 20.739-1.414h177.935l1.447.222a112.254 112.254 0 00107.741-176.274v.02z" fill="url(#paint0_linear)"/><path opacity=".3" d="M399.596 226.646a98.655 98.655 0 00-.137-3.935 110.668 110.668 0 00-2.554-18.646c-.044-.202-.093-.404-.141-.61a112.486 112.486 0 00-2.897-10.275 106.68 106.68 0 00-2.485-6.647 76.711 76.711 0 00-.986-2.323 109.688 109.688 0 00-5.252-10.505l-.255-.444c-.586-1.019-1.212-2.021-1.81-3.035l-.246-.404c-.118-.19-.235-.351-.336-.533v-.024a105.26 105.26 0 00-2.448-3.713 111.665 111.665 0 00-8.606-10.95 112.35 112.35 0 00-14.986-13.972 122.89 122.89 0 00-4.101-3.018 110.46 110.46 0 00-50.416-19.345 108.557 108.557 0 00-8.808-.707 76.62 76.62 0 00-2.194-.065 112.398 112.398 0 00-16.615.869 110.719 110.719 0 00-23.054 5.503 111.203 111.203 0 00-96.117-55.314c-3.963-.003-7.923.21-11.863.635-.436.036-.873.089-1.309.141-5.343.631-10.632 1.65-15.826 3.05a111.007 111.007 0 00-4.93-7.425 111.355 111.355 0 00-5.402-6.905 127.077 127.077 0 00-5.002-5.504 2.236 2.236 0 00-.169-.17 110.765 110.765 0 00-8.461-7.822 98.764 98.764 0 00-4.848-3.814 105.38 105.38 0 00-6.396-4.42 100.856 100.856 0 00-4.68-2.828 152.01 152.01 0 00-51.6 40.255 144.926 144.926 0 00-7.272 9.547 142.604 142.604 0 00-3.192 4.731c-.497.768-.986 1.536-1.47 2.311a140.707 140.707 0 00-4.55 7.835 151 151 0 00-4.347 8.687 149.715 149.715 0 00-9.992 29.288 146.915 146.915 0 00-1.617 8.025 120.175 120.175 0 00-.509 3.111l-.048.347c-.404 2.829-.764 5.657-1.026 8.538l-.352.032c.028.085.057.17.077.259.076.045.154.087.234.125-.032.367-.06.735-.089 1.099.02.326-.005.654-.076.974-.291 3.771-.437 7.587-.437 11.45a150.474 150.474 0 0017.188 70.085 111.602 111.602 0 0042.913-2.962 108.55 108.55 0 003.984 6.101 111.65 111.65 0 0038.52 34.251 109.45 109.45 0 0016.183 7.087c2.155.751 4.352 1.437 6.59 2.056.125.033.25.073.376.101a110.21 110.21 0 0021.466 3.637c2.619.191 5.261.286 7.928.286 6 0 11.991-.481 17.915-1.438a109.47 109.47 0 0010.982-2.372 107.85 107.85 0 008.343-2.598 108.779 108.779 0 002.38 3.895 109.592 109.592 0 009.273 12.509 111.448 111.448 0 0021.236 19.188h124.642l1.447.223a112.183 112.183 0 0016.271-13.621 110.826 110.826 0 0031.26-65.604c.461-4.109.695-8.24.699-12.375v-1.908z" fill="#6C63FF"/><path d="M480 209.107a112.442 112.442 0 01-56.448 97.426H204.78a224.77 224.77 0 01-.731-5.773 300.848 300.848 0 01-.489-4.312 216.9 216.9 0 01-.683-7.551c-.97-13.584-.404-27.475 5.01-39.632a48.065 48.065 0 012.295-4.55 50.381 50.381 0 014.222-6.21 56.245 56.245 0 014.445-4.941 67.362 67.362 0 016.751-5.819 80.488 80.488 0 013.491-2.501l.218-.145c6.089-4.097 12.788-7.451 19.536-10.311l1.398-.582.363-.149c.659-.275 1.317-.538 1.976-.809l.263-.105a209.093 209.093 0 0110.751-3.943 207.57 207.57 0 0123.374-6.384c1.527-.326 3.058-.633 4.594-.921a204.461 204.461 0 0110.23-1.681c.356-.048.707-.097 1.063-.137l2.238-.295.404-.049c.643-.08 1.289-.153 1.935-.226 2.639-.303 5.281-.562 7.924-.808.105 0 .206 0 .307-.036h.024c2.799-.237 5.6-.458 8.404-.663l1.964-.145 1.616-.114 9.6-.678c2.594-.198 5.184-.404 7.774-.635.44-.036.876-.072 1.317-.117l.893-.085a1.64 1.64 0 00.242-.024h.113l1.499-.149a.66.66 0 01.089 0c.432-.041.857-.085 1.285-.134a223.95 223.95 0 0010.279-1.289l1.042-.153a147.17 147.17 0 0017.523-3.79c1.315-.375 2.621-.77 3.92-1.188 1.489-.482 2.971-.994 4.444-1.535l.622-.231a574.35 574.35 0 003.055-1.212 87.069 87.069 0 004.355-1.939l.186-.085a78.124 78.124 0 007.269-3.931 71.657 71.657 0 0010.61-7.806c.251-.227.497-.449.739-.675l.081-.073a110.272 110.272 0 009.059-9.697c4.016-4.719 7.903-9.572 12.335-13.891a68.62 68.62 0 014.041-3.636 72.013 72.013 0 014.977-3.77l.255-.178a73.193 73.193 0 017.822-4.674 110.995 110.995 0 016.008 7.676A111.695 111.695 0 01480 209.107z" fill="#6C63FF"/><path opacity=".2" d="M480 209.107a112.442 112.442 0 01-56.448 97.426H204.78a224.77 224.77 0 01-.731-5.773 300.848 300.848 0 01-.489-4.312 216.9 216.9 0 01-.683-7.551c-.97-13.584-.404-27.475 5.01-39.632a48.065 48.065 0 012.295-4.55 50.381 50.381 0 014.222-6.21 56.245 56.245 0 014.445-4.941 67.362 67.362 0 016.751-5.819 80.488 80.488 0 013.491-2.501l.218-.145c6.089-4.097 12.788-7.451 19.536-10.311l1.398-.582.363-.149c.659-.275 1.317-.538 1.976-.809l.263-.105a209.093 209.093 0 0110.751-3.943 207.57 207.57 0 0123.374-6.384c1.527-.326 3.058-.633 4.594-.921a204.461 204.461 0 0110.23-1.681c.356-.048.707-.097 1.063-.137l2.238-.295.404-.049c.643-.08 1.289-.153 1.935-.226 2.639-.303 5.281-.562 7.924-.808.105 0 .206 0 .307-.036h.024c2.799-.237 5.6-.458 8.404-.663l1.964-.145 1.616-.114 9.6-.678c2.594-.198 5.184-.404 7.774-.635.44-.036.876-.072 1.317-.117l.893-.085a1.64 1.64 0 00.242-.024h.113l1.499-.149a.66.66 0 01.089 0c.432-.041.857-.085 1.285-.134a223.95 223.95 0 0010.279-1.289l1.042-.153a147.17 147.17 0 0017.523-3.79c1.315-.375 2.621-.77 3.92-1.188 1.489-.482 2.971-.994 4.444-1.535l.622-.231a574.35 574.35 0 003.055-1.212 87.069 87.069 0 004.355-1.939l.186-.085a78.124 78.124 0 007.269-3.931 71.657 71.657 0 0010.61-7.806c.251-.227.497-.449.739-.675l.081-.073a110.272 110.272 0 009.059-9.697c4.016-4.719 7.903-9.572 12.335-13.891a68.62 68.62 0 014.041-3.636 72.013 72.013 0 014.977-3.77l.255-.178a73.193 73.193 0 017.822-4.674 110.995 110.995 0 016.008 7.676A111.695 111.695 0 01480 209.107z" fill="#000"/><path d="M79.713 206.816c1.207 0 2.186-1.282 2.186-2.864 0-1.583-.979-2.865-2.186-2.865-1.207 0-2.186 1.282-2.186 2.865 0 1.582.979 2.864 2.186 2.864z" fill="#3F3D56"/><path d="M79.713 203.317c1.207 0 2.186-1.282 2.186-2.864 0-1.583-.979-2.865-2.186-2.865-1.207 0-2.186 1.282-2.186 2.865 0 1.582.979 2.864 2.186 2.864z" fill="#3F3D56"/><path d="M79.713 199.818c1.207 0 2.186-1.282 2.186-2.864 0-1.583-.979-2.865-2.186-2.865-1.207 0-2.186 1.282-2.186 2.865 0 1.582.979 2.864 2.186 2.864z" fill="#3F3D56"/><path d="M79.713 196.319c1.207 0 2.186-1.282 2.186-2.864 0-1.583-.979-2.865-2.186-2.865-1.207 0-2.186 1.282-2.186 2.865 0 1.582.979 2.864 2.186 2.864z" fill="#3F3D56"/><path d="M79.713 192.82c1.207 0 2.186-1.282 2.186-2.864 0-1.583-.979-2.865-2.186-2.865-1.207 0-2.186 1.282-2.186 2.865 0 1.582.979 2.864 2.186 2.864z" fill="#3F3D56"/><path d="M79.713 189.321c1.207 0 2.186-1.282 2.186-2.864 0-1.583-.979-2.865-2.186-2.865-1.207 0-2.186 1.282-2.186 2.865 0 1.582.979 2.864 2.186 2.864z" fill="#3F3D56"/><path d="M79.713 185.822c1.207 0 2.186-1.282 2.186-2.864 0-1.583-.979-2.865-2.186-2.865-1.207 0-2.186 1.282-2.186 2.865 0 1.582.979 2.864 2.186 2.864z" fill="#3F3D56"/><path d="M87.9 159.01c.296-.385.566-.79.807-1.212l-5.745-.941 6.214.044a10.504 10.504 0 00.198-8.299l-8.34 4.323 7.677-5.656a10.477 10.477 0 10-17.305 11.717 10.45 10.45 0 00-1.212 1.911l7.463 3.875-7.956-2.671a10.476 10.476 0 001.689 9.838 10.48 10.48 0 00-1.19 11.055 10.473 10.473 0 009.424 5.9 10.48 10.48 0 0010.417-11.598 10.48 10.48 0 00-2.182-5.357 10.471 10.471 0 000-12.953l.04.024z" fill="#6C63FF"/><path opacity=".03" d="M69.188 165.487c0 2.345.79 4.623 2.242 6.465a10.474 10.474 0 002.676 15.357 10.47 10.47 0 0011.118 0 10.472 10.472 0 004.857-10.001 10.474 10.474 0 00-2.182-5.356c1.394-1.77-18.711-7.641-18.711-6.465z" fill="#000"/><path d="M102.743 216.109c1.208 0 2.186-1.282 2.186-2.865 0-1.582-.978-2.864-2.186-2.864-1.207 0-2.185 1.282-2.185 2.864 0 1.583.978 2.865 2.185 2.865z" fill="#3F3D56"/><path d="M102.743 212.61c1.208 0 2.186-1.282 2.186-2.865 0-1.582-.978-2.864-2.186-2.864-1.207 0-2.185 1.282-2.185 2.864 0 1.583.978 2.865 2.185 2.865z" fill="#3F3D56"/><path d="M102.743 209.111c1.208 0 2.186-1.282 2.186-2.865 0-1.582-.978-2.864-2.186-2.864-1.207 0-2.185 1.282-2.185 2.864 0 1.583.978 2.865 2.185 2.865z" fill="#3F3D56"/><path d="M102.743 205.612c1.208 0 2.186-1.282 2.186-2.865 0-1.582-.978-2.864-2.186-2.864-1.207 0-2.185 1.282-2.185 2.864 0 1.583.978 2.865 2.185 2.865z" fill="#3F3D56"/><path d="M102.743 202.113c1.208 0 2.186-1.282 2.186-2.865 0-1.582-.978-2.864-2.186-2.864-1.207 0-2.185 1.282-2.185 2.864 0 1.583.978 2.865 2.185 2.865z" fill="#3F3D56"/><path d="M102.743 198.614c1.208 0 2.186-1.282 2.186-2.865 0-1.582-.978-2.864-2.186-2.864-1.207 0-2.185 1.282-2.185 2.864 0 1.583.978 2.865 2.185 2.865z" fill="#3F3D56"/><path d="M102.743 195.115c1.208 0 2.186-1.282 2.186-2.864 0-1.583-.978-2.865-2.186-2.865-1.207 0-2.185 1.282-2.185 2.865 0 1.582.978 2.864 2.185 2.864z" fill="#3F3D56"/><path d="M110.929 168.303c.297-.385.567-.79.808-1.212l-5.745-.942 6.214.045a10.503 10.503 0 00.198-8.299l-8.339 4.323 7.676-5.656a10.466 10.466 0 00-6.725-4.978 10.48 10.48 0 00-11.201 4.601 10.478 10.478 0 00.621 12.094 10.455 10.455 0 00-1.212 1.911l7.463 3.875-7.956-2.671a10.475 10.475 0 001.69 9.838 10.48 10.48 0 002.674 15.358 10.48 10.48 0 0014.984-4.303 10.474 10.474 0 00-1.19-11.055 10.47 10.47 0 000-12.953l.04.024z" fill="#6C63FF"/><path opacity=".03" d="M92.218 174.78c0 2.345.79 4.622 2.243 6.464a10.48 10.48 0 00-1.19 11.055 10.472 10.472 0 009.424 5.9 10.478 10.478 0 008.234-16.955c1.394-1.769-18.71-7.64-18.71-6.464z" fill="#000"/><path d="M251.026 224.594c1.207 0 2.186-1.283 2.186-2.865 0-1.582-.979-2.864-2.186-2.864-1.207 0-2.186 1.282-2.186 2.864 0 1.582.979 2.865 2.186 2.865z" fill="#3F3D56"/><path d="M251.026 221.095c1.207 0 2.186-1.283 2.186-2.865 0-1.582-.979-2.864-2.186-2.864-1.207 0-2.186 1.282-2.186 2.864 0 1.582.979 2.865 2.186 2.865z" fill="#3F3D56"/><path d="M251.026 217.596c1.207 0 2.186-1.283 2.186-2.865 0-1.582-.979-2.864-2.186-2.864-1.207 0-2.186 1.282-2.186 2.864 0 1.582.979 2.865 2.186 2.865z" fill="#3F3D56"/><path d="M251.026 214.097c1.207 0 2.186-1.283 2.186-2.865 0-1.582-.979-2.864-2.186-2.864-1.207 0-2.186 1.282-2.186 2.864 0 1.582.979 2.865 2.186 2.865z" fill="#3F3D56"/><path d="M251.026 210.598c1.207 0 2.186-1.283 2.186-2.865 0-1.582-.979-2.864-2.186-2.864-1.207 0-2.186 1.282-2.186 2.864 0 1.582.979 2.865 2.186 2.865z" fill="#3F3D56"/><path d="M251.026 207.099c1.207 0 2.186-1.283 2.186-2.865 0-1.582-.979-2.864-2.186-2.864-1.207 0-2.186 1.282-2.186 2.864 0 1.582.979 2.865 2.186 2.865z" fill="#3F3D56"/><path d="M251.026 203.6c1.207 0 2.186-1.283 2.186-2.865 0-1.582-.979-2.864-2.186-2.864-1.207 0-2.186 1.282-2.186 2.864 0 1.582.979 2.865 2.186 2.865z" fill="#3F3D56"/><path d="M259.212 176.788c.297-.385.567-.79.808-1.212l-5.745-.942 6.214.045a10.506 10.506 0 00.198-8.299l-8.34 4.323 7.677-5.657a10.476 10.476 0 10-17.305 11.718 10.46 10.46 0 00-1.212 1.911l7.463 3.875-7.956-2.671a10.475 10.475 0 001.689 9.838 10.474 10.474 0 00-1.19 11.055 10.483 10.483 0 009.424 5.899 10.48 10.48 0 009.424-5.899 10.48 10.48 0 00-1.189-11.055 10.471 10.471 0 000-12.953l.04.024z" fill="#6C63FF"/><path opacity=".03" d="M240.501 183.265c0 2.345.79 4.622 2.242 6.464a10.48 10.48 0 008.235 16.955 10.48 10.48 0 009.424-5.9 10.474 10.474 0 00-1.19-11.055c1.394-1.769-18.711-7.64-18.711-6.464z" fill="#000"/><path d="M274.056 238.735c1.208 0 2.186-1.282 2.186-2.864 0-1.582-.978-2.865-2.186-2.865-1.207 0-2.185 1.283-2.185 2.865 0 1.582.978 2.864 2.185 2.864z" fill="#3F3D56"/><path d="M274.056 235.236c1.208 0 2.186-1.282 2.186-2.864 0-1.582-.978-2.865-2.186-2.865-1.207 0-2.185 1.283-2.185 2.865 0 1.582.978 2.864 2.185 2.864z" fill="#3F3D56"/><path d="M274.056 231.737c1.208 0 2.186-1.282 2.186-2.864 0-1.582-.978-2.865-2.186-2.865-1.207 0-2.185 1.283-2.185 2.865 0 1.582.978 2.864 2.185 2.864z" fill="#3F3D56"/><path d="M274.056 228.238c1.208 0 2.186-1.282 2.186-2.864 0-1.582-.978-2.865-2.186-2.865-1.207 0-2.185 1.283-2.185 2.865 0 1.582.978 2.864 2.185 2.864z" fill="#3F3D56"/><path d="M274.056 224.739c1.208 0 2.186-1.282 2.186-2.864 0-1.582-.978-2.865-2.186-2.865-1.207 0-2.185 1.283-2.185 2.865 0 1.582.978 2.864 2.185 2.864z" fill="#3F3D56"/><path d="M274.056 221.24c1.208 0 2.186-1.282 2.186-2.864 0-1.582-.978-2.865-2.186-2.865-1.207 0-2.185 1.283-2.185 2.865 0 1.582.978 2.864 2.185 2.864z" fill="#3F3D56"/><path d="M274.056 217.741c1.208 0 2.186-1.282 2.186-2.864 0-1.582-.978-2.865-2.186-2.865-1.207 0-2.185 1.283-2.185 2.865 0 1.582.978 2.864 2.185 2.864z" fill="#3F3D56"/><path d="M282.242 190.929c.297-.385.567-.79.808-1.212l-5.745-.941 6.214.044a10.503 10.503 0 00.198-8.299l-8.339 4.323 7.676-5.656a10.478 10.478 0 00-14.951-3.444 10.47 10.47 0 00-4.478 7.068 10.468 10.468 0 002.124 8.093 10.46 10.46 0 00-1.212 1.911l7.463 3.875-7.956-2.671a10.477 10.477 0 001.689 9.839 10.475 10.475 0 0013.794 15.357 10.476 10.476 0 002.675-15.357 10.476 10.476 0 000-12.954l.04.024z" fill="#6C63FF"/><path opacity=".03" d="M263.531 197.406a10.45 10.45 0 002.243 6.465 10.477 10.477 0 1016.468 0c1.394-1.77-18.711-7.641-18.711-6.465z" fill="#000"/><path d="M297.491 256.917c1.207 0 2.186-1.282 2.186-2.864 0-1.583-.979-2.865-2.186-2.865-1.207 0-2.186 1.282-2.186 2.865 0 1.582.979 2.864 2.186 2.864z" fill="#3F3D56"/><path d="M297.491 253.418c1.207 0 2.186-1.282 2.186-2.864 0-1.583-.979-2.865-2.186-2.865-1.207 0-2.186 1.282-2.186 2.865 0 1.582.979 2.864 2.186 2.864z" fill="#3F3D56"/><path d="M297.491 249.919c1.207 0 2.186-1.282 2.186-2.864 0-1.583-.979-2.865-2.186-2.865-1.207 0-2.186 1.282-2.186 2.865 0 1.582.979 2.864 2.186 2.864z" fill="#3F3D56"/><path d="M297.491 246.42c1.207 0 2.186-1.282 2.186-2.864 0-1.583-.979-2.865-2.186-2.865-1.207 0-2.186 1.282-2.186 2.865 0 1.582.979 2.864 2.186 2.864z" fill="#3F3D56"/><path d="M297.491 242.921c1.207 0 2.186-1.282 2.186-2.864 0-1.583-.979-2.865-2.186-2.865-1.207 0-2.186 1.282-2.186 2.865 0 1.582.979 2.864 2.186 2.864z" fill="#3F3D56"/><path d="M297.491 239.422c1.207 0 2.186-1.282 2.186-2.864 0-1.583-.979-2.865-2.186-2.865-1.207 0-2.186 1.282-2.186 2.865 0 1.582.979 2.864 2.186 2.864z" fill="#3F3D56"/><path d="M297.491 235.923c1.207 0 2.186-1.282 2.186-2.864 0-1.583-.979-2.865-2.186-2.865-1.207 0-2.186 1.282-2.186 2.865 0 1.582.979 2.864 2.186 2.864z" fill="#3F3D56"/><path d="M305.677 209.111c.297-.385.567-.79.808-1.212l-5.745-.941 6.214.044a10.502 10.502 0 00.198-8.299l-8.34 4.323 7.677-5.656a10.48 10.48 0 00-10.998-5.068 10.481 10.481 0 00-8.432 8.692 10.47 10.47 0 002.125 8.093 10.46 10.46 0 00-1.212 1.911l7.462 3.875-7.955-2.671a10.476 10.476 0 001.689 9.838 10.474 10.474 0 00-1.19 11.055 10.48 10.48 0 0014.983 4.303 10.47 10.47 0 004.858-10.001 10.484 10.484 0 00-2.183-5.357 10.47 10.47 0 000-12.953l.041.024z" fill="#6C63FF"/><path opacity=".03" d="M286.966 215.588c0 2.345.79 4.623 2.242 6.465a10.475 10.475 0 0013.794 15.357 10.476 10.476 0 002.675-15.357c1.394-1.77-18.711-7.641-18.711-6.465z" fill="#000"/><path d="M315.673 225.402c1.207 0 2.186-1.283 2.186-2.865 0-1.582-.979-2.864-2.186-2.864-1.208 0-2.186 1.282-2.186 2.864 0 1.582.978 2.865 2.186 2.865z" fill="#3F3D56"/><path d="M315.673 221.903c1.207 0 2.186-1.283 2.186-2.865 0-1.582-.979-2.864-2.186-2.864-1.208 0-2.186 1.282-2.186 2.864 0 1.582.978 2.865 2.186 2.865z" fill="#3F3D56"/><path d="M315.673 218.404c1.207 0 2.186-1.282 2.186-2.865 0-1.582-.979-2.864-2.186-2.864-1.208 0-2.186 1.282-2.186 2.864 0 1.583.978 2.865 2.186 2.865z" fill="#3F3D56"/><path d="M315.673 214.905c1.207 0 2.186-1.282 2.186-2.865 0-1.582-.979-2.864-2.186-2.864-1.208 0-2.186 1.282-2.186 2.864 0 1.583.978 2.865 2.186 2.865z" fill="#3F3D56"/><path d="M315.673 211.406c1.207 0 2.186-1.282 2.186-2.865 0-1.582-.979-2.864-2.186-2.864-1.208 0-2.186 1.282-2.186 2.864 0 1.583.978 2.865 2.186 2.865z" fill="#3F3D56"/><path d="M315.673 207.907c1.207 0 2.186-1.282 2.186-2.865 0-1.582-.979-2.864-2.186-2.864-1.208 0-2.186 1.282-2.186 2.864 0 1.583.978 2.865 2.186 2.865z" fill="#3F3D56"/><path d="M315.673 204.408c1.207 0 2.186-1.282 2.186-2.865 0-1.582-.979-2.864-2.186-2.864-1.208 0-2.186 1.282-2.186 2.864 0 1.583.978 2.865 2.186 2.865z" fill="#3F3D56"/><path d="M323.859 177.596c.296-.385.566-.79.808-1.212l-5.746-.942 6.214.045a10.503 10.503 0 00.198-8.299l-8.339 4.323 7.677-5.656a10.478 10.478 0 00-19.211 7.892 10.478 10.478 0 001.906 3.825 10.407 10.407 0 00-1.212 1.911l7.462 3.875-7.955-2.671a10.484 10.484 0 001.688 9.838 10.48 10.48 0 008.235 16.955 10.48 10.48 0 009.424-5.9 10.474 10.474 0 00-1.19-11.055 10.471 10.471 0 000-12.953l.041.024z" fill="#6C63FF"/><path opacity=".03" d="M305.147 184.073a10.45 10.45 0 002.243 6.464 10.474 10.474 0 00-1.19 11.055 10.48 10.48 0 0014.983 4.303 10.47 10.47 0 004.858-10.001 10.49 10.49 0 00-2.182-5.357c1.393-1.769-18.712-7.64-18.712-6.464z" fill="#000"/><path d="M449.41 181.362c1.208 0 2.186-1.283 2.186-2.865 0-1.582-.978-2.865-2.186-2.865-1.207 0-2.185 1.283-2.185 2.865 0 1.582.978 2.865 2.185 2.865z" fill="#3F3D56"/><path d="M449.41 177.863c1.208 0 2.186-1.283 2.186-2.865 0-1.582-.978-2.865-2.186-2.865-1.207 0-2.185 1.283-2.185 2.865 0 1.582.978 2.865 2.185 2.865z" fill="#3F3D56"/><path d="M449.41 174.364c1.208 0 2.186-1.283 2.186-2.865 0-1.582-.978-2.865-2.186-2.865-1.207 0-2.185 1.283-2.185 2.865 0 1.582.978 2.865 2.185 2.865z" fill="#3F3D56"/><path d="M449.41 170.865c1.208 0 2.186-1.283 2.186-2.865 0-1.582-.978-2.865-2.186-2.865-1.207 0-2.185 1.283-2.185 2.865 0 1.582.978 2.865 2.185 2.865z" fill="#3F3D56"/><path d="M449.41 167.366c1.208 0 2.186-1.283 2.186-2.865 0-1.582-.978-2.865-2.186-2.865-1.207 0-2.185 1.283-2.185 2.865 0 1.582.978 2.865 2.185 2.865z" fill="#3F3D56"/><path d="M449.41 163.867c1.208 0 2.186-1.283 2.186-2.865 0-1.582-.978-2.865-2.186-2.865-1.207 0-2.185 1.283-2.185 2.865 0 1.582.978 2.865 2.185 2.865z" fill="#3F3D56"/><path d="M449.41 160.368c1.208 0 2.186-1.283 2.186-2.865 0-1.582-.978-2.865-2.186-2.865-1.207 0-2.185 1.283-2.185 2.865 0 1.582.978 2.865 2.185 2.865z" fill="#3F3D56"/><path d="M459.838 152.998v1.2c0 .061-.028.222-.044.335v.138c0 .121-.04.23-.065.347a1.95 1.95 0 01-.04.202c-.028.15-.065.291-.105.437-.041.145-.077.295-.121.432-.1.335-.22.665-.36.986a6.169 6.169 0 01-.21.468c-.077.154-.137.279-.21.404-.073.126-.117.219-.178.324a4.79 4.79 0 01-.19.303c-.069.101-.048.081-.077.125a10.62 10.62 0 01-.169.255c-.057.08-.037.052-.061.08a10.509 10.509 0 01-1.883 2.037l-.036.028-.287.23-.154.109a4.124 4.124 0 01-.29.206 9.826 9.826 0 01-1.447.829 3.506 3.506 0 01-.404.173c-.129.057-.259.11-.404.154-.145.044-.166.069-.25.093l-.146.052-.404.114-.404.109c-.05.014-.102.025-.154.032l-.343.073a8.049 8.049 0 01-.756.125h-.04c-.089 0-.182.024-.271.028a2.994 2.994 0 01-.315.025h-1.2a2.491 2.491 0 01-.311-.025 1.847 1.847 0 01-.258-.024 8.189 8.189 0 01-.776-.113c-.138-.024-.271-.057-.404-.089a.246.246 0 01-.089-.02 10.506 10.506 0 01-1.657-.538 8.89 8.89 0 01-.848-.404c-.13-.068-.263-.141-.404-.218l-.283-.174a8.135 8.135 0 01-.546-.367c-.072-.053-.145-.105-.218-.166a1.586 1.586 0 01-.153-.117c-.077-.065-.154-.121-.231-.19a.2.2 0 01-.06-.052c-.101-.081-.198-.174-.295-.259a10.336 10.336 0 01-.925-.97 10.5 10.5 0 01-.279-.343 3.237 3.237 0 01-.186-.255c-.057-.085-.097-.133-.141-.198a6.958 6.958 0 01-.186-.278 10.75 10.75 0 01-.627-1.112 5.517 5.517 0 01-.157-.351 6.156 6.156 0 01-.255-.634 10.16 10.16 0 01-.287-.934.034.034 0 010-.02 11.284 11.284 0 01-.101-.436c-.028-.142-.052-.251-.068-.376-.016-.125-.041-.226-.057-.34a.646.646 0 010-.088c-.024-.134-.036-.275-.048-.404a7.672 7.672 0 01-.033-.469c-.004-.154 0-.319 0-.481a10.452 10.452 0 012.243-6.465 8.78 8.78 0 01-.501-.695 3.324 3.324 0 01-.146-.226c-.044-.077-.133-.218-.194-.327-.06-.109-.149-.259-.222-.404a8.892 8.892 0 01-.4-.845c-.04-.097-.077-.189-.113-.282-.101-.271-.19-.542-.271-.808a9.443 9.443 0 01-.27-1.285c0-.097-.033-.19-.045-.287a10.1 10.1 0 01-.06-.707v-.202-.38c0-1.142.187-2.276.553-3.358l7.956 2.671-7.463-3.883c.335-.677.741-1.316 1.212-1.907a10.505 10.505 0 01-1.406-10.586 112.824 112.824 0 0119.386 20.909 10.301 10.301 0 01-1.479 2.59l-.032.041a10.42 10.42 0 012.153 6.428z" fill="#6C63FF"/><path opacity=".03" d="M438.885 140.032c0 2.346.79 4.623 2.242 6.465a10.479 10.479 0 002.675 15.358 10.48 10.48 0 0014.984-4.303 10.474 10.474 0 00-1.19-11.055c1.394-1.77-18.711-7.64-18.711-6.465z" fill="#000"/><path opacity=".3" d="M264.331 69.68a210.21 210.21 0 01-14.068 4.166 671.124 671.124 0 0112.63-5.757c.485.525.945 1.058 1.438 1.592zM144.21 19.026c2.33-.113 4.675-.168 7.034-.165h.214a193.24 193.24 0 01-8.682 5.418c-.732.404-1.463.848-2.198 1.256-.555.316-1.11.624-1.665.926a513.33 513.33 0 01-13.212 6.953 512.7 512.7 0 01-10.137 5.002 445.473 445.473 0 01-13.374 6.138c-10.877 4.763-21.85 9.05-32.938 12.73A1485.385 1485.385 0 0197.353 40.72c6.64-3.8 13.288-7.545 19.944-11.232l2.17-1.212c4.864-2.694 9.737-5.352 14.618-7.976l1.127-.61 8.998-.663zM289.543 108.824a145.542 145.542 0 013.188 7.758c-.614.295-1.212.582-1.842.873-14.21 6.63-28.574 12.61-43.051 17.806a1922.232 1922.232 0 0126.457-16.938c5.08-3.197 10.163-6.363 15.248-9.499z" fill="#6C63FF"/><path d="M294.477 306.533c-.073-9.931-1.438-19.721-5.394-28.581a47.945 47.945 0 00-2.295-4.55 50.415 50.415 0 00-4.157-6.125 53.796 53.796 0 00-3.811-4.328 69.295 69.295 0 00-10.941-9.026c-6.566-4.444-13.85-8.024-21.151-11.038a209.237 209.237 0 00-27.879-9.293 299.585 299.585 0 00-3.39-.84c-.352-.089-.703-.17-1.059-.255l-1.143-.263c-.655-.153-1.301-.295-1.956-.44-1.95-.428-3.905-.832-5.866-1.212a204.69 204.69 0 00-10.231-1.681c-7.402-1.018-14.852-1.653-22.307-2.198l-3.592-.259-9.6-.678a452.11 452.11 0 01-9.6-.808l-.771-.041-1.499-.149c-1.326-.138-2.655-.275-3.98-.429a224.479 224.479 0 01-7.677-1.006 165.202 165.202 0 01-8.509-1.495l-.465-.097a140.43 140.43 0 01-3.575-.787 135.892 135.892 0 01-8.081-2.166 105 105 0 01-10.978-3.988 77.77 77.77 0 01-3.539-1.616l-.477-.239a74.949 74.949 0 01-18.222-12.246l-.457-.404-.97-.929a75.991 75.991 0 01-1.677-1.693c-.549-.57-1.062-1.111-1.587-1.677-3.05-3.301-5.903-6.8-8.82-10.238-2.526-2.97-5.096-5.891-7.883-8.615a59.662 59.662 0 00-1.564-1.466 68.437 68.437 0 00-8.828-6.881 69.622 69.622 0 00-4.659-2.828 74.321 74.321 0 00-4.764-2.425 78.545 78.545 0 00-6.573-2.703 82.495 82.495 0 00-11.56-3.204 83.47 83.47 0 00-17.248-1.689c-1.705.021-3.41.089-5.103.223l-.352.032c.028.085.057.17.077.259.076.045.154.087.234.125-.032.368-.06.735-.089 1.099.022.325-.003.651-.072.97-.291 3.771-.437 7.587-.437 11.45a150.474 150.474 0 0017.188 70.085l.158.299a151.854 151.854 0 0048.34 54.327 150.296 150.296 0 0053.385 23.099l3.341.683c4.617.894 9.308 1.568 14.073 2.02 4.849.469 9.768.705 14.76.707 6.937.003 13.866-.47 20.739-1.414h121.923c.372-4.428.602-8.933.57-13.378z" fill="#3F3D56"/><path opacity=".1" d="M231.939 50.966a7.355 7.355 0 00-4.262.464 6.282 6.282 0 01-5.111 0 7.18 7.18 0 00-6.017.117 3.756 3.756 0 01-1.733.433c-2.424 0-4.469-2.457-4.889-5.697.486-.355.898-.801 1.212-1.313 1.427-2.303 3.637-3.782 6.13-3.782s4.674 1.459 6.105 3.737a4.696 4.696 0 004.04 2.227h.061c1.963-.013 3.636 1.543 4.464 3.814z" fill="#6C63FF"/><path opacity=".1" d="M240.04 47.657c-.739 2.541-2.525 4.339-4.606 4.339a3.72 3.72 0 01-1.713-.424 7.174 7.174 0 00-5.963-.117 6.338 6.338 0 01-2.546.541 6.25 6.25 0 01-1.955-.32c-.106-.028-.215-.072-.32-.108a3.25 3.25 0 01-.295-.121.194.194 0 00-.076-.029 3.035 3.035 0 00-.316-.13c-.101-.04-.202-.072-.303-.108a7.143 7.143 0 00-5.321.38 3.745 3.745 0 01-1.729.436c-.328 0-.655-.048-.97-.142-.044 0-.085-.024-.129-.032a.773.773 0 01-.146-.048c-1.878-.675-3.325-2.853-3.636-5.556a9.431 9.431 0 01-.073-1.176c0-3.842 2.223-6.953 4.97-6.953h.133a4.585 4.585 0 004.041-2.182c.158-.261.332-.512.521-.751 7.131 3.62 13.963 7.8 20.432 12.5zM28.707 106.461a7.239 7.239 0 00-4.263.476c-.088.037-.177.077-.27.109a6.257 6.257 0 01-4.15.142c-.105-.036-.214-.073-.319-.117-.105-.045-.25-.093-.372-.15l-.315-.129-.303-.105a7.214 7.214 0 00-4.848.109 145.937 145.937 0 014.315-8.614 8.804 8.804 0 011.98 2.242 4.706 4.706 0 004.04 2.222h.06c.233.001.464.024.692.069.425.083.835.234 1.212.449a6.143 6.143 0 012.541 3.297z" fill="#6C63FF"/><path opacity=".1" d="M37.172 100.537c0 3.839-2.226 6.95-4.97 6.95a3.73 3.73 0 01-1.713-.424 6.756 6.756 0 00-3.172-.703 7.261 7.261 0 00-2.792.577c-.125.053-.246.105-.375.15-.694.263-1.429.4-2.17.404-.582 0-1.161-.08-1.721-.238l-.235-.073c-.105-.037-.214-.073-.319-.117a2.925 2.925 0 01-.311-.126l-.077-.028c-.105-.048-.206-.085-.315-.129l-.303-.105-.279-.081a7.154 7.154 0 00-4.614.263 146.03 146.03 0 014.347-8.687 149.998 149.998 0 014.55-7.835c.485-.775.974-1.543 1.47-2.31a7.596 7.596 0 013.148 2.306l-1.507 2.74 2.388-1.516a4.723 4.723 0 002.34 1.774l-.574 1.047 1.337-.853c.267.046.538.067.808.065h.065c.867.01 1.706.308 2.384.848l-1.616 2.97-.76 1.386 3.232-2.044.72-.457c.067.115.127.234.181.356a8.917 8.917 0 01.853 3.89z" fill="#6C63FF"/><path d="M399.519 240.949c7.987 0 14.461-8.474 14.461-18.929 0-10.454-6.474-18.929-14.461-18.929-7.986 0-14.46 8.475-14.46 18.929 0 10.455 6.474 18.929 14.46 18.929z" fill="#2F2E41"/><path d="M399.519 217.81c7.987 0 14.461-8.475 14.461-18.929 0-10.455-6.474-18.929-14.461-18.929-7.986 0-14.46 8.474-14.46 18.929 0 10.454 6.474 18.929 14.46 18.929z" fill="#2F2E41"/><path d="M399.519 194.675c7.987 0 14.461-8.475 14.461-18.93 0-10.454-6.474-18.929-14.461-18.929-7.986 0-14.46 8.475-14.46 18.929 0 10.455 6.474 18.93 14.46 18.93z" fill="#2F2E41"/><path d="M399.519 171.539c7.987 0 14.461-8.475 14.461-18.929 0-10.454-6.474-18.929-14.461-18.929-7.986 0-14.46 8.475-14.46 18.929 0 10.454 6.474 18.929 14.46 18.929z" fill="#2F2E41"/><path d="M399.519 148.4c7.987 0 14.461-8.475 14.461-18.929 0-10.455-6.474-18.93-14.461-18.93-7.986 0-14.46 8.475-14.46 18.93 0 10.454 6.474 18.929 14.46 18.929z" fill="#2F2E41"/><path d="M386.384 98.412a23.827 23.827 0 00-1.334 7.927c-.041 4.056 1 8.049 3.015 11.568 2.642 4.477 6.788 7.362 11.446 7.362 4.659 0 8.8-2.885 11.447-7.362a22.746 22.746 0 003.01-11.107 110.447 110.447 0 00-12.635-4.816 107.245 107.245 0 00-9.123-2.424l-5.826-1.148z" fill="#2F2E41"/><path d="M392.218 99.547c3.09.685 6.131 1.493 9.124 2.425-.603.098-1.212.148-1.823.149a11.915 11.915 0 01-7.301-2.573z" fill="#2F2E41"/><path d="M130.024 237.717c7.986 0 14.461-8.475 14.461-18.929 0-10.454-6.475-18.929-14.461-18.929-7.986 0-14.461 8.475-14.461 18.929 0 10.454 6.475 18.929 14.461 18.929z" fill="#3F3D56"/><path d="M130.024 214.578c7.986 0 14.461-8.475 14.461-18.93 0-10.454-6.475-18.929-14.461-18.929-7.986 0-14.461 8.475-14.461 18.929 0 10.455 6.475 18.93 14.461 18.93z" fill="#3F3D56"/><path d="M130.024 191.442c7.986 0 14.461-8.475 14.461-18.929 0-10.454-6.475-18.929-14.461-18.929-7.986 0-14.461 8.475-14.461 18.929 0 10.454 6.475 18.929 14.461 18.929z" fill="#3F3D56"/><path d="M130.024 168.307c7.986 0 14.461-8.475 14.461-18.929 0-10.455-6.475-18.93-14.461-18.93-7.986 0-14.461 8.475-14.461 18.93 0 10.454 6.475 18.929 14.461 18.929z" fill="#3F3D56"/><path d="M130.024 145.168c7.986 0 14.461-8.475 14.461-18.93 0-10.454-6.475-18.929-14.461-18.929-7.986 0-14.461 8.475-14.461 18.929 0 10.455 6.475 18.93 14.461 18.93z" fill="#3F3D56"/><path d="M130.024 122.032c7.986 0 14.461-8.475 14.461-18.929 0-10.454-6.475-18.93-14.461-18.93-7.986 0-14.461 8.476-14.461 18.93 0 10.454 6.475 18.929 14.461 18.929z" fill="#3F3D56"/><path d="M130.024 98.897c7.986 0 14.461-8.475 14.461-18.93 0-10.454-6.475-18.929-14.461-18.929-7.986 0-14.461 8.475-14.461 18.93 0 10.454 6.475 18.929 14.461 18.929z" fill="#3F3D56"/><path d="M130.024 80.546c7.986 0 14.461-8.476 14.461-18.93 0-10.454-6.475-18.93-14.461-18.93-7.986 0-14.461 8.476-14.461 18.93 0 10.454 6.475 18.93 14.461 18.93z" fill="#3F3D56"/><path d="M123.899 21.33a16.046 16.046 0 00-5.321 5.583c-.49.825-.918 1.686-1.281 2.574a23.58 23.58 0 00-1.733 8.93v.064a22.807 22.807 0 003.014 11.567c2.642 4.477 6.788 7.362 11.446 7.362 4.659 0 8.8-2.885 11.447-7.361a23.709 23.709 0 000-23.136 20.786 20.786 0 00-.893-1.378 14.518 14.518 0 00-6.493-5.224c-.356-.14-.718-.26-1.087-.36l-9.099 1.378z" fill="#3F3D56"/><path d="M132.994 19.951c.735-.088 1.473-.172 2.214-.25l8.998-.675a22.673 22.673 0 01-1.434 5.253 20.64 20.64 0 01-1.305 2.634c-2.647 4.477-6.788 7.362-11.447 7.362-1.483 0-2.952-.293-4.323-.86a14.637 14.637 0 01-6.234-5.128c-.311-.44-.61-.897-.889-1.374a20.668 20.668 0 01-1.843-4.093 140.777 140.777 0 017.164-1.49l9.099-1.378zM37.095 180.747c7.986 0 14.46-8.474 14.46-18.929 0-10.454-6.474-18.929-14.46-18.929-7.986 0-14.46 8.475-14.46 18.929 0 10.455 6.473 18.929 14.46 18.929z" fill="#3F3D56"/><path d="M37.095 157.608c7.986 0 14.46-8.475 14.46-18.929 0-10.455-6.474-18.93-14.46-18.93-7.986 0-14.46 8.475-14.46 18.93 0 10.454 6.473 18.929 14.46 18.929z" fill="#3F3D56"/><path d="M37.095 134.473c7.986 0 14.46-8.475 14.46-18.93 0-10.454-6.474-18.929-14.46-18.929-7.986 0-14.46 8.475-14.46 18.929 0 10.455 6.473 18.93 14.46 18.93z" fill="#3F3D56"/><path d="M51.556 92.392c.04 4.055-1 8.048-3.015 11.568-2.646 4.476-6.787 7.365-11.446 7.365-3.77 0-7.2-1.891-9.778-4.982v-.028a17.652 17.652 0 01-1.648-2.355 17.498 17.498 0 01-.695-1.273 23.293 23.293 0 01-2.348-10.295c0-.7.028-1.391.085-2.073.485-.776.974-1.543 1.47-2.31a127.32 127.32 0 013.193-4.732 149.851 149.851 0 017.272-9.548c.796-.18 1.609-.27 2.425-.27 4.658 0 8.8 2.884 11.446 7.365a22.84 22.84 0 013.038 11.568z" fill="#3F3D56"/><path d="M51.556 69.273A22.86 22.86 0 0148.54 80.84c-2.646 4.477-6.791 7.358-11.446 7.358-3.742 0-7.148-1.855-9.697-4.905a149.822 149.822 0 017.273-9.547 150.172 150.172 0 0114.383-15.132 23.151 23.151 0 012.502 10.659z" fill="#3F3D56"/><path d="M122.424 318.602c4.617.894 9.308 1.568 14.073 2.02 4.849.474 9.768.711 14.76.711 6.937.001 13.866-.472 20.739-1.418h177.923a112.386 112.386 0 00121.806-68.465 376.337 376.337 0 00-9.543-5.991 175.973 175.973 0 00-9.859-5.556c-.505-.271-1.014-.533-1.527-.808a133.803 133.803 0 00-19.252-8.125 98.096 98.096 0 00-8.671-2.425 85.198 85.198 0 00-4.141-.856 77.864 77.864 0 00-5.253-.784 71.11 71.11 0 00-13.907-.299c-.851.065-1.705.15-2.562.255a61.65 61.65 0 00-4.925.775c-2.02.404-4.008.9-5.964 1.487-16.848 5.006-31.442 16.194-46.553 25.527l-.578.36a230.207 230.207 0 01-49.907 22.889 232.429 232.429 0 01-9.851 2.933 247.898 247.898 0 01-11.353 2.829c-.723.161-1.451.319-2.174.468a218.822 218.822 0 01-8.751 1.689 233.854 233.854 0 01-54.077 3.039 225.34 225.34 0 01-18.824-1.932l-.736-.105c-3.082-.456-6.165-.978-9.244-1.499-3.693-.622-7.386-1.236-11.083-1.737a150.175 150.175 0 00-3.753-.469 97.705 97.705 0 00-11.859-.654c-.626 0-1.253.024-1.883.052-6.759.263-13.616 1.576-19.733 4.287l-.348.154a37.029 37.029 0 00-8.941 5.62 32.49 32.49 0 00-2.23 2.093c-5.221 5.386-8.344 11.992-10.91 18.901a148.883 148.883 0 0015.758 4.323l3.333.711z" fill="#2F2E41"/><path opacity=".6" d="M157.172 101.665a.808.808 0 100-1.617.808.808 0 000 1.617zM75.151 102.473a.808.808 0 100-1.616.808.808 0 000 1.616zM248.485 144.493a.808.808 0 100-1.617.808.808 0 000 1.617zM309.899 116.21a.808.808 0 100-1.617.808.808 0 000 1.617z" fill="#fff"/><path d="M122.424 318.602a43.78 43.78 0 001.451-11.228c0-.978-.036-1.948-.097-2.909a43.998 43.998 0 001.879-12.792 45.088 45.088 0 00-.247-4.691c0-.085-.02-.174-.028-.259a43.37 43.37 0 00-4.445-14.856l-18.311 5.705-7.09 2.206 5.345-3.144 16.97-9.971a43.94 43.94 0 00-33.027-18.825 44.211 44.211 0 00-3.426-4.537l-14.097 4.384-22.452 6.974 19.264-11.314 10.675-6.307a43.947 43.947 0 00-57.188 3.204l-.25.247a151.886 151.886 0 0048.339 54.343 150.305 150.305 0 0053.382 23.087l3.353.683z" fill="#2F2E41"/><path d="M206.138 319.931h-33.863c3.959-6.517 10.073-10.699 16.933-10.699 6.861 0 12.974 4.17 16.93 10.699z" fill="#3F3D56"/><path opacity=".1" d="M206.138 319.931h-33.863c3.959-6.517 10.073-10.699 16.933-10.699 6.861 0 12.974 4.17 16.93 10.699z" fill="#000"/><path d="M122.424 318.602c4.617.894 9.308 1.568 14.073 2.02 4.849.474 9.768.711 14.76.711 6.937.001 13.866-.472 20.739-1.418h78.663a44.023 44.023 0 004.42-22.335 43.93 43.93 0 001.891-11.734v-1.042a43.77 43.77 0 00-4.707-19.798l-25.455 7.911 22.327-13.127a43.93 43.93 0 00-33.026-18.824 33.92 33.92 0 00-1.725-2.425 40.238 40.238 0 00-.505-.65 32.436 32.436 0 00-1.212-1.451l-1.027.32-35.478 11.03 29.244-17.216.695-.404a43.957 43.957 0 00-33.741-8.485c-.671.101-1.338.226-2 .368a43.766 43.766 0 00-16.445 7.191 44.042 44.042 0 00-16.99 24.36l9.293 10.687 3.37 3.883 7.531 8.67 5.875 6.76 5.232 6.024-8.994-6.485-12.626-9.119-12.38-8.941a44.103 44.103 0 00-11.208 11.551 43.658 43.658 0 00-6.549 15.972 44.202 44.202 0 002.602 25.317l3.353.679zM273.164 305.111c2.606-4.327.141-9.891-2.8-13.992-2.942-4.101-6.554-8.4-6.239-13.434.457-7.241 8.348-11.16 14.671-14.711a68.231 68.231 0 0012.998-9.487c1.58-1.471 3.115-3.051 4.089-4.974 1.402-2.772 1.519-5.996 1.584-9.107.207-10.349.176-20.7-.093-31.054l-24.21 96.759z" fill="#2F2E41"/><path d="M441.148 190.626a697.487 697.487 0 014.48 10.364 670.54 670.54 0 017.415 18.323c1.123 2.897 2.242 5.923 2.02 9.022-.17 2.154-.986 4.198-1.891 6.158l-.085.186a67.51 67.51 0 01-2.271 4.444 67.608 67.608 0 01-4.497 7.022 59.445 59.445 0 01-1.555 2.053c-2.077 2.63-4.445 5.463-6.138 8.424-1.365 2.368-2.311 4.82-2.359 7.321a9.972 9.972 0 00.529 3.443c1.616 4.78 6.602 7.374 10.885 10.048a23.065 23.065 0 015.438 4.562" stroke="#2F2E41" stroke-width="4" stroke-miterlimit="10"/><path d="M441.503 201.77c6.248 0 11.313-5.065 11.313-11.313 0-6.249-5.065-11.314-11.313-11.314s-11.313 5.065-11.313 11.314c0 6.248 5.065 11.313 11.313 11.313zM461.499 220.626c6.248 0 11.313-5.065 11.313-11.313S467.747 198 461.499 198s-11.313 5.065-11.313 11.313 5.065 11.313 11.313 11.313zM441.802 247.087c6.248 0 11.313-5.065 11.313-11.313s-5.065-11.313-11.313-11.313-11.313 5.065-11.313 11.313 5.065 11.313 11.313 11.313zM447.555 274.865c6.248 0 11.313-5.065 11.313-11.313 0-6.249-5.065-11.314-11.313-11.314s-11.313 5.065-11.313 11.314c0 6.248 5.065 11.313 11.313 11.313z" fill="#2F2E41"/><path d="M347.697 266.691c.759-4.99-3.637-9.196-7.915-11.871-4.279-2.675-9.277-5.256-10.893-10.052-2.332-6.869 3.47-13.491 7.967-19.184a68.028 68.028 0 008.408-13.738c.905-1.959 1.722-4.004 1.891-6.153.243-3.099-.876-6.125-2.02-9.022a648.936 648.936 0 00-11.895-28.687" stroke="#2F2E41" stroke-width="4" stroke-miterlimit="10"/><path d="M333.624 179.143c6.248 0 11.313-5.065 11.313-11.313s-5.065-11.313-11.313-11.313-11.313 5.065-11.313 11.313 5.065 11.313 11.313 11.313zM353.62 198c6.248 0 11.313-5.065 11.313-11.313s-5.065-11.313-11.313-11.313-11.313 5.065-11.313 11.313S347.372 198 353.62 198zM333.923 224.461c6.249 0 11.314-5.065 11.314-11.314 0-6.248-5.065-11.313-11.314-11.313-6.248 0-11.313 5.065-11.313 11.313 0 6.249 5.065 11.314 11.313 11.314zM339.677 252.238c6.248 0 11.313-5.065 11.313-11.313s-5.065-11.313-11.313-11.313-11.313 5.065-11.313 11.313 5.065 11.313 11.313 11.313z" fill="#2F2E41"/><path d="M149.842 228.622c1.18-1.774.251-4.165-.909-5.951-1.159-1.786-2.602-3.661-2.371-5.778.327-3.042 3.729-4.541 6.464-5.919a28.722 28.722 0 005.657-3.746 7.785 7.785 0 001.822-2.02c.642-1.143.752-2.501.84-3.806.291-4.358.477-8.721.558-13.087" stroke="#3F3D56" stroke-width="4" stroke-miterlimit="10"/><path d="M162.069 193.087a4.772 4.772 0 10-.002-9.544 4.772 4.772 0 00.002 9.544zM166.356 203.859a4.772 4.772 0 10-.002-9.544 4.772 4.772 0 00.002 9.544zM154.113 210.469a4.773 4.773 0 10-.001-9.545 4.773 4.773 0 00.001 9.545zM151.366 222.113a4.772 4.772 0 100-9.544 4.772 4.772 0 000 9.544z" fill="#3F3D56"/><path d="M370.909 148.844c-.618-3.43-.311-7.127-1.883-10.226a2.258 2.258 0 00-.715-.917 2.471 2.471 0 00-1.281-.291 62.393 62.393 0 00-4.262-.04c-.404 0-.865.06-1.071.404a.78.78 0 00-.056.121c-1.617-1.818-2.861-4.081-4.615-5.762.251-.08.501-.161.756-.23a7.019 7.019 0 00-.093-.505l-.04-.149a10.076 10.076 0 00-.093-.344c-.033-.113-.041-.109-.057-.166a5.437 5.437 0 00-.109-.319l-.069-.165c-.04-.105-.08-.211-.129-.312-.048-.101-.044-.101-.069-.153l-.153-.323c0-.045-.045-.085-.065-.13-.06-.117-.117-.23-.178-.339l-.06-.109-.206-.364-.041-.068a8.333 8.333 0 00-.246-.404c-.687-1.124-1.447-2.223-2-3.366-.982-2.02-1.305-4.299-1.956-6.465-.65-2.165-1.781-4.339-3.757-5.361-.938-.485-2.202-.909-2.287-1.976-.006-.341.064-.68.206-.99.269-.689.598-1.352.982-1.984.137-.234.291-.465.444-.687.037-.056.077-.109.117-.165.122-.17.247-.332.372-.493l.158-.198c.129-.154.258-.303.404-.449l.157-.178c.186-.198.376-.404.574-.577.177-.141.316-.325.404-.534.053-.207.064-.423.032-.634-.097-1.717.809-3.321 1.815-4.703 1.006-1.382 2.173-2.695 2.743-4.311.065-.186.121-.376.17-.562 0-.064.028-.125.04-.19.012-.064.057-.254.081-.38.024-.125.02-.149.032-.222.012-.072.033-.238.045-.355.012-.117 0-.158 0-.235v-.351-.234-.356-.226c0-.077 0-.255-.033-.38-.032-.125 0-.138-.02-.206a8.149 8.149 0 00-.06-.436v-.146a13.23 13.23 0 00-.11-.598 30.445 30.445 0 00-1.103-3.754 13.352 13.352 0 00-.913-2.19c.223-.04.445-.092.671-.153-.141-.258-.364-.561-.489-.852 1.329-2.085 2.489-4.267 3.071-6.663.359-1.696.57-3.42.63-5.152.335-5.2.667-10.428.238-15.62v-.206c.159-1.115.17-2.247.033-3.365-.214-2.174-.723-4.368-1.887-6.207-1.164-1.838-3.091-3.458-5.228-3.676-.352.398-.743.76-1.168 1.078a4.59 4.59 0 01-1.358-2.117 11.54 11.54 0 009.73-10.67v-.235-.63-.247V28.91c0-.13 0-.258-.033-.404v-.137c0-.142-.032-.28-.056-.404v-.09c-.024-.153-.053-.302-.081-.452a.197.197 0 010-.048 11.715 11.715 0 00-1.378-3.592 11.72 11.72 0 00.97-3.964v-.404-.198V18.646a11.718 11.718 0 00-3.232-7.725c.23-.393.422-.807.573-1.236a6.182 6.182 0 00.223-.747v-.033c.028-.113.048-.226.072-.343V8.5c.025-.133.045-.267.061-.404s.028-.283.036-.404V7.56 6.833v-.13a7.107 7.107 0 00-14.165-.323 7.31 7.31 0 00.064 2.19 11.593 11.593 0 00-6.464 9.074c-.077.648-.1 1.3-.069 1.952a11.717 11.717 0 00-1.818 5.398v.218c0 .242-.029.485-.029.731a11.675 11.675 0 004.493 9.233 8.175 8.175 0 002.271 2.392c.163.49.284.992.364 1.503.068 1.373-.34 2.828-1.378 3.729-.263.218-.554.404-.808.61a1.474 1.474 0 00-.836.02c-3.099.974-6.061 2.901-7.495 5.859a11.14 11.14 0 00-.744 2.089c-.056.085-.117.17-.17.258a30.147 30.147 0 00-4.028 9.645c-.404 1.75-.634 3.568-1.45 5.16-.197.33-.356.68-.473 1.046a10.76 10.76 0 00-.073 1.693c-.085 1.022-.679 1.927-.877 2.933-.121.598-.097 1.212-.202 1.818-.185 1.055-.755 1.992-1.119 2.994-.642 1.766-.634 3.705-1.107 5.528a1.9 1.9 0 01-.372.808c-.323.36-.832.444-1.252.674a2.764 2.764 0 00-1.257 1.883 8.41 8.41 0 00-.04 2.34l.234 3.05c-1.139.34-2.274.687-3.41 1.034l-5.604 1.714c-1.616.492-3.256 1.002-4.65 1.963a8.485 8.485 0 00-2.93 3.556c-.638 1.458-.86 3.062-1.087 4.646-.642 4.445-1.422 8.889-2.88 13.095-.113.327-.235.655-.356.982-.121.323-.25.642-.38.962l-.085.194a26.335 26.335 0 01-.771 1.725l13.107 4.392c0 .157.032.323.056.513.453 3.232.235 6.489.655 9.697.053.537.176 1.065.364 1.572-.332.289-.571.67-.687 1.094a5.824 5.824 0 00-.069 2.089c.151 1.643.299 3.291.444 4.942.08.602.087 1.211.021 1.814-.166 1.087-.784 2.04-1.132 3.083-.347 1.042-.323 2.371.538 3.034a2.139 2.139 0 002.064.186 4.805 4.805 0 001.709-1.321c2.643-2.926 3.823-6.889 5.879-10.271.525-.782.994-1.6 1.402-2.448.283-.655.461-1.35.691-2.021.313-.905.691-1.787 1.132-2.638.242-.485 1.179-1.657.981-2.202-.335-.925-3.935-1.75-4.824-2.02-.574-.186-1.212-.352-1.762-.081a1.132 1.132 0 00-.238.158c-.101-1.326-.206-2.651-.307-3.972a23.268 23.268 0 001.588-.202c-.02-.748-.036-1.499-.053-2.255l-.048-2.072c-.037-1.677-.073-3.358-.117-5.015a27.208 27.208 0 00-.186-2.909c-.206-1.479-.655-2.917-.808-4.4a1.66 1.66 0 01.743-.339 5.119 5.119 0 011.273-.045h.335c1.851.057 3.661-.598 5.309-1.462 1.649-.865 3.18-1.94 4.821-2.828.202-.11.404-.215.618-.32l.226-.113.384-.19.319-.153.073-.037c.957-.456 1.923-.901 2.828-1.398.061.101.129.199.202.291a1.9 1.9 0 002.02.728c-1.131 2.735-2.464 5.381-2.804 8.339-.493 4.267 1.212 8.444 2.889 12.388l5.346 12.602c.589 1.394 1.377 2.957 2.828 3.289.905.206 1.842-.138 2.683-.538 2.424-1.163 4.646-2.828 6.868-4.396a.754.754 0 01.089.069c2.02 1.596 3.293 3.83 4.691 5.96l3.75 6.153c-.03.31.022.622.149.905.273.509.628.969 1.051 1.362a17.743 17.743 0 014.505 9.22c.137.873.23 1.802.743 2.517 1.006 1.394 3.144 1.305 4.655.509a3.031 3.031 0 001.163-.961c.254-.45.415-.946.473-1.459.272-1.271.422-2.566.449-3.866.012-2.445-.897-4.792-1.326-7.209zm-21.495-113.22c.259-.174.509-.363.756-.561a11.607 11.607 0 01-2.424 4.12c-.255.28-.526.542-.808.809v-.19c-.033-.618 0-1.269.02-1.907a8.17 8.17 0 002.456-2.27zm-21.22 47.414c0-.036.028-.076.045-.117.21.159.394.35.545.566a2.251 2.251 0 00.081 2.02c.315.533.881 1.026.755 1.616-.125.59-.888.845-1.515.946a56.6 56.6 0 00-2.424.448v-.044a6.244 6.244 0 00-.275-2c1.382-.57 2.247-2 2.788-3.435z" fill="url(#paint1_linear)"/><path d="M353.204 13.083a7.127 7.127 0 00-1.154-8.744 7.136 7.136 0 00-8.771-.935 7.128 7.128 0 00-3.287 5.178 7.26 7.26 0 00.065 2.157 11.463 11.463 0 00-6.445 8.97 11.769 11.769 0 00-.068 1.923 11.455 11.455 0 00-1.149 10.211 11.46 11.46 0 0021.002 1.181 11.455 11.455 0 001.217-5.137v-.546a11.464 11.464 0 00-1.398-14.258h-.012z" fill="#2F2E41"/><g opacity=".1" fill="#000"><path opacity=".1" d="M339.963 8.93l.093-.05c0-.124-.036-.25-.052-.375v.077c-.028.117-.033.23-.041.347zM356.364 20.598a11.417 11.417 0 01-1.774 4.885v.545a11.462 11.462 0 01-22.873.91c-.024.306-.04.618-.04.933a11.465 11.465 0 0019.648 8.247 11.453 11.453 0 003.281-8.247v-.546a11.408 11.408 0 001.758-4.864c.094-.769.107-1.544.04-2.316 0 .15-.008.303-.04.453zM354.145 8.497a7.144 7.144 0 01-.941 2.727c.198.206.404.404.574.643.184-.508.31-1.036.376-1.572a7.212 7.212 0 00-.009-1.798z"/></g><path d="M307.006 136.081c.053.653.23 1.291.521 1.879a2.066 2.066 0 001.519 1.111 3.094 3.094 0 001.677-.485c1.018-.533 2.081-1.152 2.61-2.174.529-1.022.445-2.17.356-3.281l-.683-8.739a59.49 59.49 0 00-4.962.044c-1.648.089-1.919.473-1.693 2.069.453 3.176.231 6.4.655 9.576zM355.446 141.992l3.928 6.347c.171.37.477.659.856.808.278.036.56-.015.808-.145 1.309-.57 2.311-1.661 3.277-2.715.651-.719 1.325-1.475 1.572-2.424a3.077 3.077 0 00-.784-2.893 9.92 9.92 0 00-1.483-1.059c-3.107-2.093-4.509-6.06-7.572-8.226a1.209 1.209 0 00-.622-.267 1.279 1.279 0 00-.638.214l-4.19 2.299c-1.814.99-1.24 1.107.137 2.178 2.045 1.58 3.309 3.782 4.711 5.883z" fill="#FBBEBE"/><path d="M315.531 131.026c-.574-.182-1.212-.343-1.761-.081a1.944 1.944 0 00-.918 1.451c-.109.582-.097 1.188-.258 1.758-.275.965-1.006 1.717-1.713 2.424a2.54 2.54 0 01-1.079.747c-.566.146-1.168-.117-1.746 0a1.884 1.884 0 00-1.373 1.402 5.476 5.476 0 00-.069 2.057l.444 4.873a7.335 7.335 0 010 1.789c-.165 1.071-.787 2.021-1.131 3.039-.343 1.018-.327 2.339.538 2.994a2.165 2.165 0 002.068.182 4.853 4.853 0 001.713-1.301c2.647-2.885 3.827-6.796 5.883-10.126.527-.773.998-1.583 1.41-2.424.279-.65.461-1.333.687-2.02.317-.892.696-1.76 1.136-2.598.246-.481 1.179-1.616.985-2.174-.315-.901-3.923-1.709-4.816-1.992zM363.232 144.465a5.033 5.033 0 01-2.78 2.388 2.533 2.533 0 00-.937.488 1.472 1.472 0 00-.166 1.617c.276.499.633.949 1.055 1.333a17.37 17.37 0 014.513 9.091c.137.86.23 1.774.748 2.481 1.006 1.373 3.147 1.284 4.658.501a3.015 3.015 0 001.168-.946c.253-.442.414-.932.473-1.438.271-1.254.422-2.531.448-3.814-.028-2.425-.937-4.74-1.374-7.124-.618-3.381-.307-7.026-1.883-10.08a2.227 2.227 0 00-.719-.905 2.503 2.503 0 00-1.281-.287 62.681 62.681 0 00-4.27-.037c-.404 0-.869.057-1.075.404-.206.348-.024.808.162 1.16.88 1.721 2.311 3.099 1.26 5.168z" fill="#2F2E41"/><path d="M329.443 83.842a2.187 2.187 0 00-.514 2.772c.316.525.881 1.01.756 1.616-.125.606-.893.833-1.519.934-5.515.876-10.885 2.493-16.234 4.1l-5.613 1.69c-1.616.488-3.264.99-4.662 1.939a8.39 8.39 0 00-2.934 3.503c-.638 1.438-.86 3.022-1.09 4.578-.841 5.737-1.916 11.527-4.477 16.727l13.612 4.444c1.318.488 2.685.832 4.077 1.027 1.326.11 2.661.046 3.971-.19-.084-3.039-.137-6.17-.222-9.208a25.073 25.073 0 00-.186-2.873c-.202-1.455-.654-2.873-.808-4.335.626-.518 1.54-.404 2.352-.368 1.858.057 3.672-.59 5.321-1.442 1.648-.853 3.188-1.912 4.848-2.776 2.736-1.447 5.847-2.424 7.936-4.707-1.063 4.04-3.576 7.588-4.041 11.749-.464 4.162 1.213 8.323 2.893 12.214l5.358 12.425c.59 1.373 1.378 2.913 2.828 3.232.909.206 1.847-.137 2.691-.529 4.925-2.311 8.889-6.647 14.141-8.037-.404-2.606-2.448-4.759-3.616-7.123-.981-1.992-1.305-4.234-1.959-6.36-.655-2.125-1.782-4.274-3.762-5.284-.937-.477-2.206-.893-2.295-1.948a2.263 2.263 0 01.21-.978 12.824 12.824 0 013.204-4.662c.174-.141.313-.321.404-.526.054-.204.065-.417.033-.626-.101-1.693.808-3.277 1.818-4.634 1.01-1.358 2.178-2.655 2.747-4.25.978-2.748 0-5.762-.961-8.51-.404-1.11-.808-2.258-1.616-3.119-1.261-1.35-3.233-1.737-5.063-1.94-5.948-.634-12.929-2.19-17.628 1.475z" fill="#2F2E41"/><g opacity=".1" fill="#000"><path opacity=".1" d="M351.943 95.863c-1.014 1.361-1.919 2.941-1.818 4.634.032.209.021.422-.032.626-.092.206-.23.387-.404.53a12.771 12.771 0 00-3.204 4.662c-.143.306-.215.64-.21.978.056.659.577 1.071 1.212 1.402.613-1 1.36-1.911 2.222-2.707.174-.141.312-.321.404-.525a1.56 1.56 0 00.032-.627c-.101-1.693.808-3.276 1.818-4.634 1.011-1.358 2.178-2.654 2.748-4.25a8.858 8.858 0 00.145-4.809 9.063 9.063 0 01-.145.47c-.59 1.587-1.758 2.888-2.768 4.25zM328.824 84.663a1.14 1.14 0 00.873-.756.768.768 0 000-.234c-.085.064-.17.12-.255.19-.27.21-.483.485-.618.8zM310.844 122.844a20.023 20.023 0 01-4.076-1.026l-12.017-3.939a35.673 35.673 0 01-1.616 3.814l13.612 4.444a19.57 19.57 0 004.077 1.027 15.28 15.28 0 003.972-.19c-.041-1.427-.073-2.877-.105-4.323a14.94 14.94 0 01-3.847.193zM343.761 136.028c-.844.404-1.781.736-2.691.534-1.454-.328-2.242-1.871-2.828-3.233l-5.357-12.424c-1.176-2.731-2.368-5.576-2.804-8.485-.033.206-.065.404-.089.614-.493 4.206 1.212 8.324 2.893 12.214l5.357 12.425c.59 1.373 1.378 2.913 2.828 3.232.91.206 1.847-.137 2.691-.529 4.926-2.311 8.889-6.647 14.142-8.037-.202-1.357-.865-2.594-1.616-3.802-4.493 1.75-8.118 5.439-12.526 7.491zM334.048 96.945c-2.089 2.283-5.2 3.257-7.935 4.703-1.64.869-3.176 1.928-4.848 2.78-1.673.853-3.463 1.495-5.322 1.443-.808-.025-1.725-.154-2.351.363.129 1.354.521 2.663.743 4.004a7.102 7.102 0 011.616-.032c1.859.057 3.673-.59 5.322-1.442 1.648-.853 3.187-1.911 4.848-2.776 1.802-.954 3.766-1.705 5.495-2.756.865-2.064 1.859-4.1 2.432-6.287z"/></g><path d="M338.824 40.832c.069 1.354-.339 2.804-1.382 3.673-.335.279-.723.493-1.046.784a2.834 2.834 0 00-.788 2.237 2.834 2.834 0 001.192 2.05c1.079.662 2.457.485 3.705.266 1.66-.234 3.287-.66 4.848-1.268a8.078 8.078 0 003.839-3.144c-1.362-.755-2.101-2.351-2.186-3.903-.085-1.551.343-3.325-.642-4.533-.986-1.208-2.707-1.168-4.142-.764-.727.202-1.43.477-2.157.675-.368.097-1.588.101-1.827.372-.46.5.542 2.767.586 3.555z" fill="#FBBEBE"/><path opacity=".1" d="M338.824 40.832c.069 1.354-.339 2.804-1.382 3.673-.335.279-.723.493-1.046.784a2.834 2.834 0 00-.788 2.237 2.834 2.834 0 001.192 2.05c1.079.662 2.457.485 3.705.266 1.66-.234 3.287-.66 4.848-1.268a8.078 8.078 0 003.839-3.144c-1.362-.755-2.101-2.351-2.186-3.903-.085-1.551.343-3.325-.642-4.533-.986-1.208-2.707-1.168-4.142-.764-.727.202-1.43.477-2.157.675-.368.097-1.588.101-1.827.372-.46.5.542 2.767.586 3.555z" fill="#000"/><path d="M342.994 40.743a8.057 8.057 0 100-16.113 8.057 8.057 0 000 16.113zM317.576 94.497a5.464 5.464 0 01-.76 1.79 8.418 8.418 0 00-.962 5.499 5.82 5.82 0 003.39 4.279c.752.299 1.685.375 2.307-.146-1.074-1.398-1.131-3.309-1.066-5.075a1.67 1.67 0 01.226-.941.594.594 0 01.631-.255.591.591 0 01.218.102 7.656 7.656 0 00.63 3.232c.17.404.46.808.889.808.614 0 .78-.849.755-1.463-.093-2.497-.218-5.099-1.422-7.293-.44-.808-1.026-1.551-1.212-2.452a1.454 1.454 0 00-.307-.86 1.09 1.09 0 00-.453-.21c-.695-.199-2.335-.809-2.909-.159-.574.651.138 2.312.045 3.144z" fill="#FBBEBE"/><path d="M329.519 51.693c-.921-.101-1.652.743-2.158 1.523a29.471 29.471 0 00-4.012 9.507c-.404 1.725-.634 3.515-1.454 5.083a5.312 5.312 0 00-.473 1.034 10.456 10.456 0 00-.073 1.67c-.084 1.005-.678 1.898-.88 2.892-.118.59-.093 1.212-.198 1.794-.186 1.038-.756 1.96-1.124 2.95-.642 1.74-.634 3.636-1.107 5.45a1.874 1.874 0 01-.375.808c-.32.352-.833.44-1.253.663a2.718 2.718 0 00-1.257 1.858 8.18 8.18 0 00-.044 2.307l.372 4.764c.38-.158.63-.59.949-.857.582-.484 1.439-.375 2.182-.238l1.087.194c1.111.202 2.319.46 3.03 1.333.566-.885.243-2.19 1.111-2.78.287-.19.635-.254.934-.404a2.093 2.093 0 00.949-1.672 6.123 6.123 0 00-.275-1.976c1.394-.586 2.263-2 2.829-3.41a28.675 28.675 0 001.297-5.253c1.256-7.083 2.424-14.214 2.525-21.414a10.27 10.27 0 00-.404-3.567c-.408-1.156-.982-2.122-2.178-2.26z" fill="#FF6F61"/><path opacity=".1" d="M329.519 51.693c-.921-.101-1.652.743-2.158 1.523a29.471 29.471 0 00-4.012 9.507c-.404 1.725-.634 3.515-1.454 5.083a5.312 5.312 0 00-.473 1.034 10.456 10.456 0 00-.073 1.67c-.084 1.005-.678 1.898-.88 2.892-.118.59-.093 1.212-.198 1.794-.186 1.038-.756 1.96-1.124 2.95-.642 1.74-.634 3.636-1.107 5.45a1.874 1.874 0 01-.375.808c-.32.352-.833.44-1.253.663a2.718 2.718 0 00-1.257 1.858 8.18 8.18 0 00-.044 2.307l.372 4.764c.38-.158.63-.59.949-.857.582-.484 1.439-.375 2.182-.238l1.087.194c1.111.202 2.319.46 3.03 1.333.566-.885.243-2.19 1.111-2.78.287-.19.635-.254.934-.404a2.093 2.093 0 00.949-1.672 6.123 6.123 0 00-.275-1.976c1.394-.586 2.263-2 2.829-3.41a28.675 28.675 0 001.297-5.253c1.256-7.083 2.424-14.214 2.525-21.414a10.27 10.27 0 00-.404-3.567c-.408-1.156-.982-2.122-2.178-2.26z" fill="#000"/><path d="M349.83 43.984a10.133 10.133 0 01-4.901 2.828 30.079 30.079 0 01-5.656.837 3.52 3.52 0 01-1.754-.154c-.541-.242-.953-.885-.731-1.434a1.6 1.6 0 00.182-.538c0-.489-.732-.53-1.212-.384-3.104.958-6.061 2.857-7.508 5.77-.808 1.649-1.074 3.5-1.333 5.313-.671 4.776-1.345 9.657-.44 14.392.481 2.525 1.41 4.99 1.466 7.56.033 1.442-.21 2.876-.198 4.319a2.167 2.167 0 00.38 1.422c.222.259.562.424.715.727.259.51-.089 1.213.255 1.67.404.56 1.305.157 1.883-.24a14.991 14.991 0 019.971-2.512c4.223.456 8.417 2.703 12.526 1.58a5.608 5.608 0 01-.546-.974c-2.02-6.711-1.903-14.21 1.152-20.522 1.046-2.157 2.424-4.214 2.828-6.573.163-1.106.177-2.228.04-3.338-.214-2.145-.727-4.307-1.891-6.12-1.163-1.815-3.082-3.42-5.228-3.63z" fill="#FF6F61"/><path d="M330.34 96.57a7.42 7.42 0 00-.465 2.743c-.03.895.014 1.791.133 2.679.069.758.34 1.483.784 2.101a1.923 1.923 0 002.02.715 2.107 2.107 0 001.212-1.349c.174-.601.301-1.214.38-1.835.356-1.83 1.313-3.547 1.334-5.41a1.55 1.55 0 00-.105-.646c-.348-.768-2.061-1.617-2.897-1.495-1.051.161-2.017 1.616-2.396 2.497z" fill="#FBBEBE"/><path opacity=".1" d="M353.588 50.776c-.158 1.616 1.39 2.808 2.02 4.299.244.695.38 1.424.404 2.161.432 5.12.097 10.271-.238 15.402a28.882 28.882 0 01-.623 5.083c-.864 3.507-2.993 6.542-5.078 9.491-.315.48-.679.925-1.087 1.33a8.14 8.14 0 01-2.02 1.212l-7.168 3.486a13.75 13.75 0 00-2.541 1.463 6.928 6.928 0 00-2.106 2.735c-1.385-.707-2.828-1.345-4.214-2.052-.327-.166-.691-.404-.743-.744-.077-.484.428-.808.776-1.171.65-.643.852-1.596 1.212-2.425 1.151-2.763 4.04-4.529 5.091-7.333.404-1.075.525-2.29 1.236-3.196a7.915 7.915 0 011.366-1.212 23.086 23.086 0 003.022-3.099c.409-.423.743-.912.99-1.446.315-.809.222-1.685.238-2.538.053-2.796 1.317-5.406 2.093-8.08.727-2.53 1.03-5.188 1.988-7.641.958-2.453 2.832-5.059 5.382-5.725z" fill="#000"/><path d="M354.517 50.776c-.157 1.616 1.39 2.808 2.02 4.299a7.18 7.18 0 01.404 2.161c.433 5.12.097 10.271-.238 15.402a28.984 28.984 0 01-.63 5.075c-.865 3.507-2.994 6.542-5.079 9.491-.315.48-.679.925-1.087 1.33-.611.5-1.291.908-2.02 1.212l-7.152 3.466a13.81 13.81 0 00-2.541 1.463 6.935 6.935 0 00-2.105 2.735c-1.386-.707-2.828-1.345-4.214-2.052-.327-.166-.691-.404-.744-.744-.076-.485.429-.808.776-1.172.651-.642.853-1.595 1.212-2.424 1.152-2.763 4.041-4.53 5.091-7.333.404-1.075.525-2.291 1.237-3.196a7.946 7.946 0 011.365-1.212 23.29 23.29 0 003.026-3.1c.408-.422.741-.912.986-1.446.315-.808.223-1.684.239-2.537.052-2.796 1.317-5.406 2.093-8.08.727-2.53 1.03-5.189 1.987-7.641.958-2.453 2.825-5.03 5.374-5.697z" fill="#FF6F61"/><path d="M346.99 20.238a11.379 11.379 0 00-7.152 1.48c.316 0 .635.032.958.072a11.463 11.463 0 014.404 21.28 11.461 11.461 0 0011.812-10.56 11.46 11.46 0 00-10.022-12.272z" fill="#2F2E41"/><path d="M350.517 26.61a5.25 5.25 0 01.089 4.016 4.7 4.7 0 00-.186-.489c-1.418-3.155-5.782-4.444-9.75-2.917-2.339.91-4.016 2.606-4.711 4.49-1.01-3.047 1.043-6.55 4.808-8.013 3.968-1.543 8.324-.238 9.75 2.913z" fill="#2F2E41"/><g opacity=".1" fill="#000"><path opacity=".1" d="M350.537 30.376a11.476 11.476 0 00-7.676-9.89 11.527 11.527 0 00-3.039 1.211c.315 0 .635.032.958.073a11.464 11.464 0 019.757 8.606zM352.396 22.008a11.47 11.47 0 00-7.677-9.887c-1.066.254-2.09.663-3.038 1.212.315 0 .634.033.957.073a11.459 11.459 0 019.758 8.602zM352.444 9.515a6.93 6.93 0 00-4.622-5.972 6.801 6.801 0 00-1.834.768c.19 0 .384 0 .578.04a6.925 6.925 0 015.878 5.164zM356.731 28.82a11.46 11.46 0 01-8.889 12.121 11.446 11.446 0 01-2.65 2.138 11.458 11.458 0 009.33-4.242 11.451 11.451 0 002.201-10.009l.008-.008z"/></g><path opacity=".1" d="M386.667 27.079a8.211 8.211 0 00-4.744.517 6.975 6.975 0 01-5.697 0 7.996 7.996 0 00-6.699.13 4.153 4.153 0 01-1.927.484c-2.715 0-4.974-2.735-5.442-6.347a5.222 5.222 0 001.357-1.463c1.592-2.566 4.041-4.21 6.825-4.21 2.783 0 5.208 1.616 6.8 4.166a5.249 5.249 0 004.509 2.476h.072c2.142-.012 4.013 1.721 4.946 4.247z" fill="#6C63FF"/><path opacity=".1" d="M394.917 15.754l-4.388 2.783 2.663-4.848a4.319 4.319 0 00-2.654-.95h-.069a4.84 4.84 0 01-.909-.064l-1.491.929.638-1.16a5.308 5.308 0 01-2.602-1.975l-2.67 1.705 1.68-3.059c-1.555-1.867-3.636-3.014-5.963-3.014-2.768 0-5.253 1.644-6.829 4.214a5.109 5.109 0 01-4.513 2.424h-.133c-3.055 0-5.535 3.467-5.535 7.742s2.48 7.741 5.535 7.741a4.109 4.109 0 001.927-.485 8.001 8.001 0 016.699-.129 7.073 7.073 0 002.865.614 6.985 6.985 0 002.828-.602 7.996 7.996 0 016.639.13c.588.308 1.242.47 1.907.472 3.058 0 5.535-3.466 5.535-7.741a9.838 9.838 0 00-1.16-4.728zM420.202 79.006a11.679 11.679 0 00-6.776.74 9.98 9.98 0 01-8.137 0 11.417 11.417 0 00-9.568.185 5.91 5.91 0 01-2.755.691c-3.879 0-7.107-3.907-7.778-9.062a7.5 7.5 0 001.939-2.093c2.275-3.665 5.798-6.017 9.754-6.017 3.955 0 7.434 2.324 9.697 5.952a7.493 7.493 0 006.465 3.54h.101c3.062-.02 5.737 2.456 7.058 6.064z" fill="#6C63FF"/><path opacity=".1" d="M432 62.824l-6.27 3.98 3.806-6.925a6.225 6.225 0 00-3.794-1.354h-.101a7.728 7.728 0 01-1.301-.097l-2.126 1.346.914-1.657a7.55 7.55 0 01-3.718-2.828l-3.806 2.424 2.425-4.368c-2.227-2.67-5.225-4.31-8.522-4.31-3.955 0-7.478 2.355-9.753 6.02a7.275 7.275 0 01-6.465 3.474h-.214c-4.368 0-7.907 4.954-7.907 11.059 0 6.105 3.539 11.059 7.907 11.059a5.95 5.95 0 002.756-.687 11.4 11.4 0 019.567-.19 9.988 9.988 0 008.138.02 11.428 11.428 0 019.487.182c.84.44 1.774.671 2.723.675 4.367 0 7.907-4.95 7.907-11.06A14.05 14.05 0 00432 62.825zM279.846 56.574a8.211 8.211 0 014.744.517 6.962 6.962 0 005.693 0 7.998 7.998 0 016.699.13c.594.314 1.255.48 1.927.484 2.715 0 4.978-2.735 5.446-6.347a5.167 5.167 0 01-1.357-1.463c-1.592-2.566-4.041-4.21-6.829-4.21-2.787 0-5.204 1.616-6.796 4.165a5.248 5.248 0 01-4.525 2.465h-.068c-2.15 0-4.025 1.733-4.934 4.259z" fill="#6C63FF"/><path opacity=".1" d="M271.572 45.248l4.388 2.784-2.667-4.848a4.329 4.329 0 012.655-.95h.073c.304.007.608-.014.909-.064l1.486.941-.638-1.16a5.31 5.31 0 002.606-1.975l2.663 1.689-1.685-3.059c1.56-1.867 3.636-3.014 5.968-3.014 2.767 0 5.252 1.644 6.828 4.214a5.109 5.109 0 004.513 2.424h.145c3.059 0 5.536 3.467 5.536 7.742 0 4.274-2.477 7.741-5.536 7.741a4.135 4.135 0 01-1.927-.485 8 8 0 00-6.699-.129 6.963 6.963 0 01-5.689.012 8.003 8.003 0 00-6.642.13 4.125 4.125 0 01-1.907.472c-3.055 0-5.536-3.467-5.536-7.741a9.843 9.843 0 011.156-4.724z" fill="#6C63FF"/></g><defs><linearGradient id="paint0_linear" x1="240" y1="321.345" x2="240" y2="18.857" gradientUnits="userSpaceOnUse"><stop stop-color="#6C63FF"/><stop offset="1" stop-color="#3F3D56"/></linearGradient><linearGradient id="paint1_linear" x1="332.715" y1="162.929" x2="332.715" y2="0" gradientUnits="userSpaceOnUse"><stop stop-color="gray" stop-opacity=".25"/><stop offset=".54" stop-color="gray" stop-opacity=".12"/><stop offset="1" stop-color="gray" stop-opacity=".1"/></linearGradient><clipPath id="clip0"><path fill="#fff" d="M0 0h480v321.345H0z"/></clipPath></defs></svg>