<svg width="768" height="418" viewBox="0 0 768 418" fill="none" xmlns="http://www.w3.org/2000/svg">
<g clip-path="url(#clip0)">
<path d="M386.464 417.622C594.714 417.622 763.533 406.445 763.533 392.659C763.533 378.872 594.714 367.696 386.464 367.696C178.215 367.696 9.39502 378.872 9.39502 392.659C9.39502 406.445 178.215 417.622 386.464 417.622Z" fill="#F2F2F2"/>
<path d="M372.012 119.382C310.577 119.382 266.468 158.797 266.468 250.765C266.468 354.996 310.577 382.586 372.012 382.586C433.447 382.586 480.184 352.368 480.184 250.765C480.184 142.155 433.447 119.382 372.012 119.382ZM372.416 347.989C329.865 347.989 307.634 323.025 307.634 250.833C307.634 187.133 330.775 153.542 373.326 153.542C415.877 153.542 439.017 175.607 439.017 250.833C439.017 321.205 414.967 347.989 372.416 347.989Z" fill="#2F2E41"/>
<path d="M229.681 309.888H204.28V235.089C204.28 231.116 202.702 227.306 199.892 224.497C197.083 221.688 193.273 220.109 189.3 220.109H183.348C181.381 220.109 179.433 220.497 177.616 221.25C175.798 222.002 174.147 223.106 172.756 224.497C171.365 225.888 170.262 227.539 169.509 229.357C168.756 231.174 168.369 233.122 168.369 235.089V309.888H96.7218C95.2479 309.888 93.7989 309.507 92.5156 308.782C91.2323 308.057 90.1582 307.012 89.3974 305.75C88.6366 304.488 88.215 303.05 88.1735 301.577C88.132 300.103 88.4721 298.644 89.1606 297.341L164.991 153.819C165.936 152.029 166.509 150.067 166.675 148.05C166.841 146.033 166.597 144.003 165.957 142.084C165.317 140.164 164.295 138.393 162.951 136.88C161.608 135.366 159.972 134.14 158.142 133.276L153.666 131.162C150.19 129.52 146.216 129.278 142.567 130.485C138.917 131.692 135.871 134.255 134.059 137.645L41.5741 310.656C39.9992 313.602 39.1753 316.891 39.1753 320.231C39.1753 322.899 39.7007 325.54 40.7215 328.005C41.7423 330.469 43.2385 332.708 45.1246 334.594C47.0108 336.481 49.25 337.977 51.7144 338.998C54.1788 340.018 56.8201 340.544 59.4876 340.544H168.369V387.842C168.369 390.2 168.833 392.534 169.735 394.713C170.638 396.891 171.96 398.871 173.628 400.538C175.295 402.205 177.274 403.528 179.453 404.43C181.631 405.333 183.966 405.797 186.324 405.797H186.324C188.682 405.797 191.017 405.333 193.196 404.43C195.374 403.528 197.353 402.205 199.021 400.538C200.688 398.871 202.011 396.891 202.913 394.713C203.815 392.534 204.28 390.2 204.28 387.842V340.544H229.681C233.746 340.544 237.645 338.929 240.519 336.054C243.394 333.18 245.009 329.281 245.009 325.216C245.009 321.15 243.394 317.252 240.519 314.377C237.645 311.503 233.746 309.888 229.681 309.888Z" fill="#FD6F5C"/>
<path d="M700.032 309.888H674.631V235.089C674.631 231.116 673.053 227.306 670.243 224.497C667.434 221.688 663.624 220.109 659.651 220.109H653.699C651.732 220.109 649.784 220.497 647.967 221.25C646.149 222.002 644.498 223.106 643.107 224.497C641.716 225.888 640.613 227.539 639.86 229.357C639.107 231.174 638.72 233.122 638.72 235.089V309.888H567.073C565.599 309.888 564.15 309.507 562.867 308.782C561.583 308.057 560.509 307.012 559.748 305.75C558.988 304.488 558.566 303.05 558.525 301.577C558.483 300.103 558.823 298.644 559.512 297.341L635.342 153.819C636.287 152.029 636.86 150.067 637.026 148.05C637.192 146.033 636.948 144.003 636.308 142.084C635.668 140.164 634.646 138.393 633.302 136.88C631.959 135.366 630.324 134.14 628.494 133.276L624.017 131.162C620.541 129.52 616.567 129.278 612.918 130.485C609.268 131.692 606.222 134.255 604.41 137.645L511.925 310.656C510.35 313.602 509.526 316.891 509.526 320.231C509.526 325.619 511.666 330.785 515.476 334.594C519.285 338.404 524.451 340.544 529.839 340.544H638.72V387.842C638.72 392.604 640.611 397.171 643.979 400.538C647.346 403.905 651.913 405.797 656.675 405.797C661.437 405.797 666.004 403.905 669.372 400.538C672.739 397.171 674.631 392.604 674.631 387.842V340.544H700.032C704.097 340.544 707.996 338.929 710.87 336.054C713.745 333.18 715.36 329.281 715.36 325.216C715.36 321.15 713.745 317.252 710.87 314.377C707.996 311.503 704.097 309.888 700.032 309.888Z" fill="#FD6F5C"/>
<path d="M236.688 301.129H211.287V226.33C211.287 224.363 210.9 222.415 210.147 220.598C209.394 218.78 208.291 217.129 206.9 215.738C205.509 214.347 203.857 213.244 202.04 212.491C200.223 211.738 198.275 211.35 196.307 211.35H190.356C186.383 211.35 182.573 212.929 179.763 215.738C176.954 218.547 175.376 222.357 175.376 226.33V301.129H103.729C102.255 301.129 100.806 300.748 99.523 300.023C98.2396 299.298 97.1655 298.254 96.4047 296.991C95.6439 295.729 95.2223 294.291 95.1809 292.818C95.1394 291.344 95.4794 289.885 96.168 288.582L171.998 145.06C172.944 143.271 173.517 141.308 173.683 139.291C173.849 137.274 173.604 135.245 172.964 133.325C172.324 131.405 171.302 129.635 169.959 128.121C168.616 126.607 166.98 125.381 165.15 124.517L160.673 122.403C157.198 120.761 153.224 120.519 149.574 121.726C145.924 122.933 142.878 125.496 141.066 128.886L48.5815 301.897C47.0066 304.843 46.1826 308.132 46.1826 311.473V311.473C46.1826 316.86 48.3227 322.026 52.132 325.835C55.9412 329.645 61.1077 331.785 66.4949 331.785H175.376V379.083C175.376 381.441 175.84 383.776 176.743 385.954C177.645 388.132 178.968 390.112 180.635 391.779C182.302 393.447 184.282 394.769 186.46 395.672C188.639 396.574 190.974 397.038 193.332 397.038H193.332C198.094 397.038 202.661 395.147 206.028 391.779C209.395 388.412 211.287 383.845 211.287 379.083V331.785H236.688C238.701 331.785 240.694 331.388 242.554 330.618C244.413 329.848 246.103 328.719 247.526 327.295C248.95 325.872 250.079 324.182 250.849 322.323C251.619 320.463 252.016 318.47 252.016 316.457V316.457C252.016 314.444 251.619 312.451 250.849 310.591C250.079 308.731 248.95 307.042 247.526 305.618C246.103 304.195 244.413 303.066 242.554 302.296C240.694 301.525 238.701 301.129 236.688 301.129V301.129Z" stroke="#3F3D56" stroke-miterlimit="10"/>
<path d="M713.17 301.129H687.769V226.33C687.769 222.357 686.191 218.547 683.382 215.738C680.572 212.929 676.762 211.35 672.789 211.35H666.838C664.87 211.35 662.922 211.738 661.105 212.491C659.288 213.244 657.636 214.347 656.245 215.738C654.854 217.129 653.751 218.78 652.998 220.598C652.245 222.415 651.858 224.363 651.858 226.33V301.129H580.211C578.737 301.129 577.288 300.748 576.005 300.023C574.722 299.298 573.647 298.254 572.887 296.991C572.126 295.729 571.704 294.291 571.663 292.818C571.621 291.344 571.961 289.885 572.65 288.582L648.48 145.06C649.425 143.271 649.998 141.308 650.165 139.291C650.331 137.274 650.086 135.245 649.446 133.325C648.806 131.405 647.784 129.635 646.441 128.121C645.098 126.607 643.462 125.381 641.632 124.517L637.155 122.403C633.679 120.761 629.706 120.519 626.056 121.726C622.406 122.933 619.36 125.496 617.548 128.886L525.063 301.897C523.488 304.843 522.665 308.132 522.665 311.473C522.665 316.86 524.805 322.026 528.614 325.835C532.423 329.645 537.59 331.785 542.977 331.785H651.858V379.083C651.858 383.845 653.75 388.412 657.117 391.779C660.484 395.147 665.051 397.038 669.813 397.038V397.038C674.576 397.038 679.143 395.147 682.51 391.779C685.877 388.412 687.769 383.845 687.769 379.083V331.785H713.17C715.183 331.785 717.176 331.388 719.036 330.618C720.895 329.848 722.585 328.719 724.008 327.295C725.432 325.872 726.561 324.182 727.331 322.323C728.101 320.463 728.498 318.47 728.498 316.457V316.457C728.498 312.392 726.883 308.493 724.008 305.618C721.134 302.744 717.235 301.129 713.17 301.129V301.129Z" stroke="#3F3D56" stroke-miterlimit="10"/>
<path d="M386.026 111.499C324.591 111.499 280.482 150.914 280.482 242.882C280.482 347.113 324.591 374.703 386.026 374.703C447.461 374.703 494.198 344.485 494.198 242.882C494.198 134.272 447.461 111.499 386.026 111.499ZM386.43 340.106C343.879 340.106 321.649 315.142 321.649 242.95C321.649 179.25 344.789 145.659 387.34 145.659C429.891 145.659 453.032 167.724 453.032 242.95C453.032 313.322 428.981 340.106 386.43 340.106V340.106Z" stroke="#3F3D56" stroke-miterlimit="10"/>
<path d="M336.783 22.2679C341.876 22.2679 346.005 18.1391 346.005 13.0459C346.005 7.95265 341.876 3.82379 336.783 3.82379C331.689 3.82379 327.561 7.95265 327.561 13.0459C327.561 18.1391 331.689 22.2679 336.783 22.2679Z" fill="#2F2E41"/>
<path d="M359.275 67.0286C373.561 67.0286 385.142 52.0237 385.142 33.5143C385.142 15.0049 373.561 0 359.275 0C344.99 0 333.409 15.0049 333.409 33.5143C333.409 52.0237 344.99 67.0286 359.275 67.0286Z" fill="#2F2E41"/>
<path opacity="0.1" d="M359.275 56.9068C346.317 56.9068 335.585 44.5615 333.702 28.4534C333.506 30.1333 333.408 31.8231 333.409 33.5143C333.409 52.0237 344.99 67.0286 359.275 67.0286C373.561 67.0286 385.142 52.0238 385.142 33.5143C385.143 31.8231 385.045 30.1333 384.849 28.4534C382.966 44.5615 372.233 56.9068 359.275 56.9068Z" fill="black"/>
<path d="M411.911 131.662C411.356 133.945 408.961 135.773 406.308 137.051C400.731 139.736 393.852 140.537 387.179 140.806C385.477 140.91 383.77 140.878 382.072 140.712C378.784 140.394 375.698 138.976 373.315 136.687C373.145 136.576 373.006 136.424 372.911 136.244C372.815 136.065 372.767 135.865 372.77 135.662C372.773 135.459 372.828 135.26 372.929 135.083C373.029 134.907 373.173 134.759 373.347 134.654C376.899 130.752 382.827 128.359 388.798 126.636C393.326 125.33 401.223 121.946 406.162 122.403C410.945 122.845 412.613 128.78 411.911 131.662Z" fill="#3F3D56"/>
<path opacity="0.1" d="M411.911 131.662C411.356 133.945 408.961 135.773 406.308 137.051C400.731 139.736 393.852 140.537 387.179 140.806C385.477 140.91 383.77 140.878 382.072 140.712C378.784 140.394 375.698 138.976 373.315 136.687C373.145 136.576 373.006 136.424 372.911 136.244C372.815 136.065 372.767 135.865 372.77 135.662C372.773 135.459 372.828 135.26 372.929 135.083C373.029 134.907 373.173 134.759 373.347 134.654C376.899 130.752 382.827 128.359 388.798 126.636C393.326 125.33 401.223 121.946 406.162 122.403C410.945 122.845 412.613 128.78 411.911 131.662Z" fill="black"/>
<path d="M341.002 114.601C339.3 117.938 338.991 121.814 340.145 125.377C341.319 128.914 343.515 132.023 346.456 134.31C353.672 140.094 363.603 140.89 372.851 140.81C380.956 140.739 389.049 140.185 397.087 139.149C399.781 138.91 402.428 138.295 404.951 137.323C407.97 136.017 410.622 133.622 411.697 130.514C412.771 127.406 412.008 123.6 409.456 121.525C407.214 119.703 404.122 119.452 401.238 119.279L384.734 118.287C386.364 116.637 388.535 115.704 390.521 114.504C393.155 112.912 394.906 110.24 396.821 107.831C399.772 104.304 402.983 101.003 406.427 97.9546C406.964 101.036 408.913 103.566 411.207 105.692C413.501 107.818 416.146 109.529 418.53 111.553C424.305 116.456 428.463 123.11 434.536 127.637C438.714 126.539 442.62 124.59 446.008 121.91L443.648 117.634C443.451 117.194 443.145 116.812 442.758 116.524C442.09 116.113 441.229 116.325 440.453 116.209C438.379 115.898 437.474 113.504 436.66 111.571C434.426 106.266 430.149 102.15 426.497 97.7012C423.801 94.417 421.409 90.8944 419.352 87.1769C418.125 84.9598 417.001 82.6513 415.336 80.7412C413.671 78.8311 411.338 77.3294 408.804 77.324C406.565 77.3193 404.5 78.456 402.575 79.5993C396.711 83.082 391.07 86.9254 385.683 91.1072C382.864 93.2958 380.063 95.6081 376.756 96.9502C375.363 97.5151 373.896 97.9013 372.56 98.5887C370.22 99.7928 368.445 101.83 366.533 103.638C359.716 110.088 350.381 114.267 341.002 114.601Z" fill="#3F3D56"/>
<path d="M375.511 68.693C375.434 70.6646 375.015 72.6078 374.271 74.4355C373.895 75.347 373.334 76.1712 372.625 76.8565C371.915 77.5419 371.073 78.0738 370.149 78.419C368.836 78.7705 367.461 78.8151 366.129 78.5494C364.967 78.4281 363.848 78.0468 362.854 77.4338C361.307 76.3698 360.535 74.4714 360.254 72.6135C359.973 70.7579 360.099 68.8617 359.919 66.9926C359.743 65.4828 359.456 63.9882 359.06 62.521C358.938 62.0329 358.814 61.5471 358.693 61.0612C358.574 60.5754 358.457 60.0895 358.349 59.6037C358.25 59.1471 358.158 58.6883 358.079 58.2271C358.014 57.838 357.955 57.4466 357.912 57.053C357.873 55.8861 357.679 54.7296 357.334 53.6139C357.011 52.8903 356.607 52.2059 356.129 51.5738C355.924 51.2814 355.726 50.989 355.544 50.6853C355.017 49.8962 354.772 48.9522 354.849 48.0064C354.871 47.8602 354.906 47.7164 354.955 47.5768C354.973 47.5228 354.993 47.4689 355.015 47.4171C355.218 47.3622 355.404 47.2587 355.557 47.1156C355.71 46.9725 355.826 46.7942 355.895 46.5961C355.972 46.1706 355.936 45.7321 355.789 45.3252C355.621 44.7567 355.391 44.2083 355.103 43.69C354.914 43.3481 354.273 42.7318 354.269 42.3404C354.26 41.5532 355.798 40.9189 356.421 40.6085C358.323 39.6561 360.444 39.2261 362.566 39.3624C363.927 39.4546 365.403 39.873 366.154 41.0133C366.829 42.0413 366.739 43.3728 367.027 44.5672C367.057 44.7408 367.13 44.904 367.24 45.0418C367.387 45.1756 367.572 45.2604 367.769 45.2847C368.102 45.351 368.444 45.3647 368.781 45.3252H368.783C368.872 45.3182 368.961 45.3054 369.049 45.287C369.574 45.19 370.071 44.9755 370.502 44.6594C370.781 44.5852 371.062 44.5245 371.345 44.4772C371.357 44.4761 371.368 44.4738 371.379 44.4705C372.506 48.0266 372.652 51.8391 373.574 55.4605C374.031 57.2621 374.685 59.0413 374.778 60.8947C374.784 60.9757 374.787 61.0589 374.789 61.1422C374.802 61.7382 374.755 62.3388 374.78 62.9326C374.788 63.2 374.819 63.4663 374.87 63.7288C374.971 64.1512 375.096 64.5672 375.245 64.9749L375.252 64.9952C375.295 65.1256 375.335 65.2584 375.369 65.3911C375.394 65.4878 375.416 65.5823 375.434 65.679L375.437 65.6857C375.603 66.6796 375.628 67.6921 375.511 68.693Z" fill="#FBBEBE"/>
<path d="M359.725 45.4355C367.055 45.4355 372.996 39.494 372.996 32.1647C372.996 24.8355 367.055 18.894 359.725 18.894C352.396 18.894 346.455 24.8355 346.455 32.1647C346.455 39.494 352.396 45.4355 359.725 45.4355Z" fill="#FBBEBE"/>
<path d="M443.979 104.47C443.594 100.85 442.307 97.3833 440.236 94.3889C440.58 96.4357 440.925 98.4818 441.271 100.527C440.841 100.652 440.384 100.648 439.957 100.516C439.529 100.385 439.15 100.131 438.864 99.7872C438.305 99.0894 437.878 98.2961 437.602 97.4457C436.094 93.7029 434.123 90.1641 431.734 86.9123C423.285 86.2083 414.934 82.7061 407.504 78.6237C400.073 74.5435 393.118 69.6513 385.785 65.3979C384.514 64.6295 383.19 63.9529 381.822 63.3735C379.528 62.4535 376.952 61.9767 374.777 60.8948C374.631 60.8228 374.485 60.7464 374.341 60.6676C373.85 60.4004 373.384 60.0879 372.951 59.7342C372.717 59.544 372.494 59.3397 372.285 59.1224C371.2 57.8598 370.34 56.4204 369.741 54.8667C368.574 52.2846 368.158 49.1693 366.993 46.5871C367.528 46.0867 368.13 45.6621 368.781 45.3253H368.783C368.878 45.2758 368.972 45.2286 369.069 45.1836C369.53 44.9665 370.009 44.7911 370.502 44.6595C370.78 44.5853 371.062 44.5245 371.345 44.4773C371.356 44.4761 371.368 44.4739 371.379 44.4705C372.693 44.2564 374.04 44.3629 375.304 44.7809C377.153 45.4062 378.711 46.6546 380.266 47.8355C382.791 49.6144 385.213 51.5353 387.52 53.5891C388.802 54.8172 389.971 56.1668 391.35 57.2825C392.496 58.1667 393.704 58.9673 394.965 59.6779C402.426 64.1225 409.887 68.5663 417.35 73.0094C419.876 74.5142 422.404 76.019 424.874 77.6115C428.625 80.0317 432.242 82.6543 435.857 85.2748C437.987 86.8178 440.116 88.3615 442.245 89.906C442.943 90.3516 443.556 90.9183 444.055 91.5795C444.496 92.3303 444.77 93.1673 444.858 94.0335C445.393 97.533 445.091 101.109 443.979 104.47Z" fill="#FBBEBE"/>
<path d="M378.801 78.6731C377.906 82.6881 373.848 85.1151 371.727 88.642C369.091 93.0191 370.166 98.1069 371.156 103.121C369.348 104.679 367.538 106.238 365.728 107.797C364.73 108.654 363.731 109.515 362.656 110.273C361.088 111.324 359.45 112.265 357.752 113.089C356.151 113.913 354.55 114.737 352.948 115.561C351.459 116.398 349.882 117.067 348.245 117.554C345.089 118.364 341.738 117.797 338.616 116.859C338.247 116.763 337.894 116.618 337.563 116.43C337.368 116.313 337.198 116.16 337.064 115.977C336.756 115.426 336.644 114.786 336.746 114.162C337.064 108.908 338.348 103.764 339.628 98.658C340.312 95.5948 341.232 92.5891 342.379 89.6676C343.504 87.1643 344.797 84.74 346.25 82.4114C347.853 79.4816 349.752 76.7238 351.918 74.1813C352.972 73.2028 353.86 72.0585 354.545 70.7939C355.344 68.972 355.035 66.8824 355.197 64.8985C355.321 63.408 355.717 61.9527 356.365 60.6047V60.6024C356.711 59.8763 357.129 59.1861 357.611 58.5421C357.829 59.0504 358.047 59.558 358.265 60.0648C358.409 60.3977 358.552 60.7299 358.693 61.0613C358.877 61.4887 359.06 61.9145 359.242 62.3389C359.766 63.558 360.289 64.7764 360.812 65.994C361.376 67.5276 362.181 68.9617 363.196 70.2429C363.66 70.8989 364.286 71.4234 365.013 71.7652C365.74 72.107 366.543 72.2543 367.344 72.1929C368.145 72.1315 368.917 71.8634 369.583 71.4148C370.25 70.9662 370.789 70.3523 371.147 69.6333C371.903 68.2911 372.451 66.8417 372.771 65.3349C373.215 63.5002 373.276 61.5937 372.951 59.7342C372.409 56.1534 370.886 52.496 369.779 49.1693C369.329 48.0601 369.068 46.8831 369.008 45.6874C369.01 45.5531 369.024 45.4192 369.048 45.2871C369.055 45.2533 369.062 45.2173 369.069 45.1836C369.53 44.9665 370.009 44.7911 370.501 44.6595C370.78 44.5853 371.061 44.5246 371.345 44.4773C372.319 49.7496 373.294 55.022 374.271 60.2943C374.294 60.418 374.318 60.5417 374.341 60.6677C374.48 61.4234 374.622 62.1792 374.78 62.9327C374.921 63.6165 375.074 64.298 375.245 64.975L375.252 64.9953C375.31 65.2247 375.371 65.4519 375.434 65.6791L375.436 65.6858C375.61 66.3066 375.803 66.9229 376.021 67.5302C377.344 71.1898 379.649 74.8741 378.801 78.6731Z" fill="#FD6F5C"/>
<path d="M432.659 135.096C432.617 135.87 432.767 136.641 433.095 137.343C433.926 138.861 435.919 139.206 437.643 139.348C447.717 140.176 457.851 139.867 467.856 138.428C468.398 138.39 468.925 138.227 469.393 137.95C470.816 136.953 469.939 134.523 468.386 133.745C466.833 132.967 464.99 133.154 463.285 132.817C461.592 132.391 459.98 131.692 458.512 130.747C455.056 128.761 451.65 126.691 448.295 124.536C446.297 123.254 443.94 121.885 441.69 122.645C435.596 124.707 432.619 128.522 432.659 135.096Z" fill="#3F3D56"/>
<path d="M358.4 59.3226V59.3248C358.385 59.4193 358.369 59.5115 358.349 59.6037C358.324 59.7567 358.295 59.9119 358.265 60.0648C357.987 61.4931 357.645 62.9146 357.251 64.3272C356.171 68.2297 354.725 72.0692 353.29 75.8525C349.439 85.9968 345.588 96.1418 341.735 106.288C340.764 108.843 339.794 111.4 338.69 113.904C338.321 114.738 337.941 115.579 337.563 116.43C336.209 119.473 334.909 122.615 334.477 125.854C334.074 127.986 334.028 130.169 334.34 132.316C334.772 134.44 336.061 136.513 338.078 137.298C339.063 137.683 340.474 138.198 340.204 139.222C340.058 139.784 339.419 140.058 338.845 140.153C338.088 140.273 337.313 140.226 336.576 140.014C335.839 139.802 335.158 139.43 334.581 138.925C333.503 137.969 332.675 136.482 331.243 136.322C330.251 136.214 329.337 136.808 328.429 137.224C324.722 138.918 320.403 137.733 316.51 136.529C316.816 134.952 318.399 133.913 319.971 133.598C321.544 133.281 323.17 133.506 324.774 133.463C325.287 133.491 325.797 133.36 326.233 133.088C326.625 132.729 326.899 132.26 327.021 131.743C328.054 128.682 328.822 125.538 329.317 122.345C329.835 119.009 330.05 115.622 330.788 112.327C331.362 109.756 332.248 107.266 333.008 104.742C334.478 99.5461 335.686 94.2791 336.625 88.9613C337.1 86.752 337.44 84.5158 337.644 82.2652C337.772 80.3983 337.711 78.5224 337.891 76.6622C338.193 74.2422 338.698 71.8518 339.401 69.5163C340.089 66.9679 340.776 64.4209 341.463 61.8755C342.482 58.1079 343.575 54.1942 346.158 51.2656C347.054 50.2346 348.153 49.3988 349.386 48.8099C350.62 48.2211 351.96 47.8917 353.326 47.8422C353.838 47.8416 354.349 47.8966 354.849 48.0064C354.932 48.0266 355.015 48.0469 355.098 48.0694C355.643 48.2119 356.166 48.4283 356.653 48.7127C357.449 48.2066 357.854 48.3843 358.382 49.1648C358.846 49.9908 359.064 50.9317 359.012 51.8774C359.057 54.3733 358.852 56.8674 358.4 59.3226Z" fill="#FBBEBE"/>
<path d="M359.275 62.3051L359.242 62.3388L359.06 62.521L357.251 64.3272L356.365 60.6047L353.326 47.8422C353.838 47.8416 354.349 47.8966 354.849 48.0064C354.871 47.8602 354.906 47.7163 354.955 47.5768L355.099 48.0694L356.129 51.5738L358.079 58.2271L358.401 59.3225V59.3248L359.275 62.3051Z" fill="#FD6F5C"/>
<path d="M370.751 21.5896C370.749 22.7714 370.515 23.9413 370.061 25.0324C369.607 26.1235 368.943 27.1144 368.105 27.9486C367.802 28.2522 367.477 28.5332 367.133 28.7895C365.581 29.9596 363.69 30.5929 361.747 30.5938H350.956C348.571 30.5901 346.286 29.6403 344.601 27.9529C342.916 26.2655 341.97 23.9785 341.97 21.594C341.97 19.2096 342.916 16.9225 344.601 15.2352C346.286 13.5478 348.571 12.598 350.956 12.5943H361.747C364.131 12.6005 366.416 13.5499 368.103 15.2353C369.79 16.9207 370.742 19.205 370.751 21.5896Z" fill="#2F2E41"/>
<path d="M380.869 22.2679C385.962 22.2679 390.091 18.1391 390.091 13.0459C390.091 7.95265 385.962 3.82379 380.869 3.82379C375.775 3.82379 371.646 7.95265 371.646 13.0459C371.646 18.1391 375.775 22.2679 380.869 22.2679Z" fill="#2F2E41"/>
<path opacity="0.1" d="M380.644 3.82379C380.53 3.82379 380.418 3.82828 380.306 3.83232C382.692 3.91905 384.951 4.92772 386.608 6.64612C388.265 8.36451 389.191 10.6587 389.191 13.0459C389.191 15.4331 388.265 17.7272 386.608 19.4456C384.951 21.164 382.692 22.1726 380.306 22.2594C380.418 22.2634 380.53 22.2679 380.644 22.2679C383.089 22.2679 385.435 21.2963 387.165 19.5668C388.894 17.8374 389.866 15.4917 389.866 13.0459C389.866 10.6 388.894 8.25434 387.165 6.52487C385.435 4.7954 383.089 3.82379 380.644 3.82379Z" fill="black"/>
<path opacity="0.1" d="M336.782 3.82379C336.895 3.82379 337.007 3.82828 337.12 3.83232C334.734 3.91905 332.475 4.92772 330.818 6.64612C329.161 8.36451 328.235 10.6587 328.235 13.0459C328.235 15.4331 329.161 17.7272 330.818 19.4456C332.475 21.164 334.734 22.1726 337.12 22.2594C337.007 22.2634 336.895 22.2679 336.782 22.2679C334.338 22.2658 331.994 21.2932 330.267 19.564C328.539 17.8347 327.568 15.4903 327.568 13.0459C327.568 10.6014 328.539 8.25698 330.267 6.52774C331.994 4.7985 334.338 3.82594 336.782 3.82379Z" fill="black"/>
<path opacity="0.1" d="M367.134 28.7895C365.582 29.9596 363.691 30.5929 361.747 30.5938H350.956C349.012 30.5929 347.122 29.9596 345.569 28.7895H367.134Z" fill="black"/>
<path d="M436.818 95.6118C436.818 95.6118 439.143 102.311 441.271 100.527L439.575 91.7707L436.818 95.6118Z" fill="#FBBEBE"/>
<path d="M719.729 299.904C721.895 300.691 724.213 300.964 726.503 300.703C728.792 300.441 730.989 299.651 732.921 298.395C734.852 297.14 736.466 295.452 737.635 293.467C738.803 291.481 739.494 289.251 739.654 286.952C739.813 284.654 739.437 282.35 738.554 280.221C737.671 278.093 736.306 276.199 734.567 274.688C732.827 273.178 730.76 272.092 728.529 271.516C726.298 270.941 723.964 270.891 721.711 271.371L722.083 279.029L718.46 272.466C714.905 274.137 712.158 277.151 710.823 280.846C710.349 282.14 710.061 283.495 709.967 284.87C709.739 288.097 710.568 291.31 712.33 294.023C714.091 296.735 716.689 298.8 719.729 299.904Z" fill="#57B894"/>
<path d="M737.655 388.716C736.376 382.204 741.918 376.43 747.392 372.678C752.866 368.925 759.261 365.238 761.129 358.87C763.813 349.717 755.818 341.335 749.595 334.107C744.978 328.743 741.013 322.85 737.783 316.553C736.489 314.028 735.299 311.388 734.958 308.571C734.468 304.514 735.771 300.477 737.084 296.607C741.459 283.715 746.136 270.932 751.115 258.257" stroke="#3F3D56" stroke-miterlimit="10"/>
<path d="M720.342 297.932C722.507 298.719 724.826 298.993 727.115 298.731C729.404 298.469 731.601 297.68 733.533 296.424C735.465 295.168 737.079 293.481 738.247 291.495C739.416 289.509 740.107 287.279 740.267 284.981C740.426 282.682 740.05 280.378 739.167 278.25C738.284 276.122 736.919 274.228 735.179 272.717C733.44 271.206 731.373 270.12 729.142 269.545C726.911 268.969 724.577 268.92 722.323 269.4L722.696 277.057L719.073 270.495C715.517 272.166 712.77 275.18 711.436 278.874C710.962 280.169 710.674 281.524 710.58 282.899C710.352 286.125 711.181 289.338 712.942 292.051C714.704 294.764 717.302 296.829 720.342 297.932V297.932Z" stroke="#3F3D56" stroke-miterlimit="10"/>
<path d="M735.837 255.612C736.687 253.267 738.113 251.174 739.984 249.526C741.856 247.877 744.112 246.726 746.545 246.178L747.77 253.458L750.041 245.812C753.194 245.859 756.251 246.907 758.77 248.804C761.289 250.701 763.14 253.35 764.055 256.368C764.971 259.385 764.903 262.616 763.863 265.593C762.823 268.57 760.864 271.139 758.268 272.93C755.672 274.721 752.575 275.641 749.422 275.556C746.27 275.472 743.226 274.388 740.73 272.461C738.234 270.534 736.414 267.863 735.535 264.835C734.656 261.806 734.761 258.577 735.837 255.612H735.837Z" fill="#57B894"/>
<path d="M736.654 252.984C737.504 250.639 738.93 248.546 740.801 246.897C742.673 245.248 744.929 244.097 747.362 243.55L748.587 250.829L750.858 243.184C754.011 243.231 757.068 244.278 759.587 246.175C762.106 248.073 763.956 250.721 764.872 253.739C765.788 256.757 765.72 259.987 764.68 262.964C763.64 265.941 761.681 268.511 759.085 270.302C756.489 272.092 753.392 273.012 750.239 272.928C747.087 272.843 744.043 271.759 741.547 269.832C739.05 267.905 737.231 265.234 736.352 262.206C735.472 259.178 735.578 255.948 736.654 252.984H736.654Z" stroke="#3F3D56" stroke-miterlimit="10"/>
<path d="M746.984 334.254C750.418 335.5 754.19 335.439 757.582 334.082C760.973 332.725 763.747 330.167 765.374 326.896C767.001 323.626 767.368 319.871 766.405 316.347C765.441 312.823 763.215 309.777 760.15 307.79L758.405 313.665L757.167 306.3C757.155 306.294 757.143 306.289 757.13 306.285C755.293 305.618 753.342 305.319 751.39 305.405C749.438 305.491 747.521 305.962 745.751 306.789C743.98 307.616 742.39 308.784 741.071 310.227C739.752 311.669 738.73 313.357 738.064 315.194C737.397 317.031 737.099 318.981 737.187 320.934C737.274 322.886 737.746 324.802 738.574 326.572C739.403 328.342 740.572 329.932 742.015 331.25C743.457 332.568 745.146 333.589 746.983 334.254H746.984Z" fill="#57B894"/>
<path d="M747.692 331.592C751.126 332.838 754.898 332.776 758.29 331.419C761.681 330.062 764.455 327.505 766.082 324.234C767.709 320.963 768.076 317.208 767.113 313.684C766.149 310.161 763.923 307.115 760.858 305.127L759.113 311.002L757.875 303.637C757.863 303.631 757.851 303.627 757.838 303.623C756.001 302.955 754.05 302.656 752.098 302.743C750.146 302.829 748.229 303.299 746.459 304.127C744.688 304.954 743.098 306.122 741.779 307.564C740.46 309.006 739.438 310.694 738.772 312.531C738.105 314.368 737.807 316.319 737.895 318.271C737.982 320.224 738.454 322.14 739.282 323.91C740.111 325.68 741.28 327.269 742.723 328.587C744.165 329.906 745.854 330.926 747.691 331.592H747.692Z" stroke="#3F3D56" stroke-miterlimit="10"/>
<path d="M731.495 358.96C732.086 362.32 733.813 365.375 736.389 367.612C738.964 369.849 742.23 371.133 745.64 371.248C749.049 371.362 752.394 370.301 755.114 368.243C757.834 366.184 759.763 363.252 760.578 359.94C761.394 356.627 761.045 353.135 759.591 350.049C758.137 346.964 755.666 344.471 752.593 342.991C749.52 341.51 746.031 341.132 742.712 341.918C739.392 342.705 736.444 344.609 734.362 347.311L740.99 357.287L731.934 351.992C731.231 354.246 731.081 356.636 731.495 358.96Z" fill="#57B894"/>
<path d="M732.108 356.989C732.698 360.349 734.426 363.403 737.001 365.641C739.577 367.878 742.843 369.161 746.252 369.276C749.662 369.391 753.007 368.33 755.727 366.271C758.447 364.212 760.376 361.281 761.191 357.968C762.006 354.656 761.658 351.164 760.204 348.078C758.75 344.992 756.279 342.5 753.206 341.019C750.133 339.539 746.644 339.16 743.324 339.947C740.005 340.733 737.057 342.637 734.975 345.339L741.603 355.316L732.546 350.021C731.844 352.275 731.694 354.665 732.108 356.989V356.989Z" stroke="#3F3D56" stroke-miterlimit="10"/>
<path d="M6.4387 336.145C7.86141 336.662 9.3848 336.842 10.8888 336.67C12.3928 336.498 13.8363 335.979 15.1056 335.154C16.3748 334.329 17.435 333.22 18.2028 331.915C18.9705 330.611 19.4247 329.145 19.5295 327.635C19.6344 326.125 19.3871 324.611 18.807 323.213C18.227 321.815 17.3301 320.57 16.1871 319.578C15.0441 318.585 13.6862 317.872 12.2203 317.493C10.7545 317.115 9.22093 317.083 7.74039 317.398L7.98506 322.429L5.60479 318.118C3.26869 319.215 1.46396 321.196 0.587187 323.623C0.275809 324.474 0.0865142 325.364 0.02495 326.267C-0.125294 328.387 0.419551 330.498 1.57692 332.281C2.73428 334.063 4.44109 335.419 6.4387 336.145Z" fill="#57B894"/>
<path d="M18.2164 394.496C17.3762 390.217 21.0171 386.424 24.6135 383.958C28.2098 381.493 32.412 379.07 33.6391 374.886C35.4027 368.873 30.1496 363.366 26.061 358.617C23.0276 355.092 20.4227 351.221 18.3006 347.083C17.3781 345.458 16.7497 343.683 16.4445 341.839C16.1221 339.173 16.9785 336.521 17.8412 333.979C20.7152 325.509 23.7881 317.11 27.0597 308.782" stroke="#3F3D56" stroke-miterlimit="10"/>
<path d="M6.84105 334.849C8.26376 335.367 9.78715 335.546 11.2912 335.374C12.7952 335.202 14.2387 334.683 15.5079 333.858C16.7771 333.033 17.8374 331.925 18.6051 330.62C19.3728 329.315 19.827 327.85 19.9319 326.34C20.0367 324.83 19.7894 323.316 19.2094 321.918C18.6293 320.519 17.7325 319.275 16.5894 318.282C15.4464 317.29 14.0885 316.576 12.6227 316.198C11.1569 315.82 9.62328 315.787 8.14275 316.103L8.38741 321.134L6.00713 316.822C3.67104 317.92 1.8663 319.9 0.989532 322.328C0.678157 323.178 0.488864 324.069 0.427297 324.972C0.277043 327.092 0.821884 329.203 1.97925 330.985C3.13662 332.768 4.84343 334.124 6.84105 334.849V334.849Z" stroke="#3F3D56" stroke-miterlimit="10"/>
<path d="M17.0217 307.044C17.58 305.504 18.5171 304.129 19.7466 303.045C20.9761 301.962 22.4584 301.206 24.057 300.846L24.8618 305.629L26.3539 300.606C28.4256 300.636 30.4339 301.325 32.0889 302.571C33.7439 303.818 34.96 305.558 35.5615 307.541C36.163 309.523 36.1188 311.646 35.4354 313.602C34.752 315.558 33.4646 317.246 31.7592 318.423C30.0538 319.599 28.0186 320.203 25.9475 320.148C23.8763 320.092 21.8763 319.38 20.2363 318.114C18.5963 316.848 17.4011 315.093 16.8233 313.104C16.2455 311.114 16.3149 308.992 17.0217 307.044Z" fill="#57B894"/>
<path d="M17.5583 305.317C18.1166 303.777 19.0537 302.401 20.2832 301.318C21.5127 300.235 22.995 299.479 24.5936 299.119L25.3984 303.902L26.8905 298.879C28.9622 298.909 30.9705 299.598 32.6255 300.844C34.2805 302.091 35.4966 303.831 36.0981 305.814C36.6996 307.796 36.6555 309.919 35.972 311.875C35.2886 313.831 34.0013 315.519 32.2959 316.695C30.5905 317.872 28.5552 318.476 26.4841 318.421C24.4129 318.365 22.4129 317.653 20.7729 316.387C19.1329 315.121 17.9377 313.366 17.3599 311.376C16.7821 309.387 16.8516 307.265 17.5583 305.317V305.317Z" stroke="#3F3D56" stroke-miterlimit="10"/>
<path d="M24.345 358.714C26.6013 359.532 29.0798 359.492 31.3082 358.6C33.5366 357.708 35.359 356.028 36.4281 353.879C37.4972 351.73 37.7382 349.263 37.1051 346.948C36.4721 344.633 35.0093 342.632 32.9955 341.326L31.849 345.186L31.036 340.347C31.028 340.343 31.0197 340.34 31.0112 340.337C29.8043 339.899 28.5228 339.702 27.2399 339.758C25.9569 339.815 24.6977 340.124 23.5343 340.667C22.3708 341.211 21.3258 341.978 20.459 342.926C19.5923 343.874 18.9208 344.983 18.4828 346.19C18.0449 347.397 17.8492 348.679 17.9068 349.962C17.9645 351.244 18.2743 352.503 18.8187 353.666C19.3632 354.829 20.1314 355.874 21.0797 356.74C22.0279 357.606 23.1375 358.277 24.345 358.714Z" fill="#57B894"/>
<path d="M24.8101 356.964C27.0663 357.783 29.5449 357.742 31.7733 356.851C34.0017 355.959 35.8241 354.279 36.8932 352.13C37.9622 349.981 38.2032 347.514 37.5702 345.199C36.9371 342.884 35.4743 340.882 33.4606 339.577L32.3141 343.437L31.5011 338.597C31.493 338.594 31.4847 338.591 31.4762 338.588C30.2696 338.15 28.9886 337.955 27.7063 338.012C26.4241 338.069 25.1657 338.379 24.003 338.922C21.6548 340.02 19.839 342.006 18.955 344.443C18.071 346.88 18.1913 349.568 19.2893 351.916C20.3873 354.264 22.3732 356.08 24.8101 356.964V356.964Z" stroke="#3F3D56" stroke-miterlimit="10"/>
<path d="M14.1692 374.946C14.5571 377.153 15.6923 379.16 17.3843 380.63C19.0763 382.1 21.2223 382.943 23.4623 383.019C25.7023 383.094 27.9002 382.397 29.6872 381.045C31.4743 379.692 32.7419 377.766 33.2775 375.589C33.813 373.413 33.584 371.119 32.6287 369.091C31.6735 367.064 30.0502 365.426 28.0309 364.454C26.0117 363.481 23.7195 363.232 21.5386 363.749C19.3577 364.266 17.4208 365.517 16.0528 367.292L20.4077 373.847L14.4572 370.368C13.9958 371.849 13.8971 373.419 14.1692 374.946Z" fill="#57B894"/>
<path d="M14.5715 373.651C14.9595 375.858 16.0947 377.865 17.7867 379.335C19.4787 380.805 21.6247 381.648 23.8647 381.724C26.1047 381.799 28.3025 381.102 30.0896 379.749C31.8766 378.397 33.1442 376.471 33.6798 374.294C34.2154 372.118 33.9863 369.823 33.0311 367.796C32.0758 365.768 30.4525 364.131 28.4333 363.158C26.4141 362.186 24.1218 361.937 21.9409 362.454C19.76 362.97 17.8231 364.221 16.4551 365.997L20.81 372.551L14.8596 369.072C14.3982 370.553 14.2994 372.124 14.5715 373.651V373.651Z" stroke="#3F3D56" stroke-miterlimit="10"/>
<path d="M343.791 243.837C350.502 243.837 355.943 236.796 355.943 228.111C355.943 219.426 350.502 212.385 343.791 212.385C337.08 212.385 331.639 219.426 331.639 228.111C331.639 236.796 337.08 243.837 343.791 243.837Z" fill="#2F2E41"/>
<path d="M409.912 244.195C416.624 244.195 422.064 237.154 422.064 228.468C422.064 219.783 416.624 212.742 409.912 212.742C403.201 212.742 397.76 219.783 397.76 228.468C397.76 237.154 403.201 244.195 409.912 244.195Z" fill="#2F2E41"/>
<path d="M400.62 274.932C400.62 282.037 390.698 287.799 378.46 287.799C366.223 287.799 356.301 282.037 356.301 274.932C356.301 268.777 363.742 263.631 373.685 262.373C375.268 262.164 376.864 262.061 378.46 262.065C381.136 262.057 383.804 262.344 386.416 262.923C394.723 264.774 400.62 269.456 400.62 274.932Z" fill="#2F2E41"/>
<path d="M346.651 240.263C353.362 240.263 358.803 233.222 358.803 224.537C358.803 215.852 353.362 208.811 346.651 208.811C339.939 208.811 334.499 215.852 334.499 224.537C334.499 233.222 339.939 240.263 346.651 240.263Z" stroke="#3F3D56" stroke-miterlimit="10"/>
<path d="M412.772 240.62C419.483 240.62 424.924 233.58 424.924 224.894C424.924 216.209 419.483 209.168 412.772 209.168C406.06 209.168 400.62 216.209 400.62 224.894C400.62 233.58 406.06 240.62 412.772 240.62Z" stroke="#3F3D56" stroke-miterlimit="10"/>
<path d="M381.32 284.225C393.558 284.225 403.479 278.464 403.479 271.358C403.479 264.252 393.558 258.491 381.32 258.491C369.081 258.491 359.16 264.252 359.16 271.358C359.16 278.464 369.081 284.225 381.32 284.225Z" stroke="#3F3D56" stroke-miterlimit="10"/>
<path d="M386.681 263.995C386.687 264.894 386.349 265.761 385.737 266.42C385.448 266.735 385.097 266.988 384.706 267.161C384.315 267.334 383.892 267.424 383.464 267.426H376.316C375.435 267.396 374.602 267.018 373.999 266.375C373.397 265.732 373.073 264.876 373.099 263.995C373.095 263.298 373.299 262.616 373.685 262.036C375.267 261.813 376.863 261.703 378.46 261.708C381.139 261.699 383.809 262.006 386.416 262.623C386.593 263.059 386.683 263.525 386.681 263.995Z" fill="white"/>
<path d="M346.651 223.822C348.625 223.822 350.225 222.222 350.225 220.248C350.225 218.274 348.625 216.674 346.651 216.674C344.677 216.674 343.077 218.274 343.077 220.248C343.077 222.222 344.677 223.822 346.651 223.822Z" fill="white"/>
<path d="M413.129 223.822C415.103 223.822 416.703 222.222 416.703 220.248C416.703 218.274 415.103 216.674 413.129 216.674C411.155 216.674 409.555 218.274 409.555 220.248C409.555 222.222 411.155 223.822 413.129 223.822Z" fill="white"/>
<path opacity="0.3" d="M416.703 257.419C418.677 257.419 420.277 255.819 420.277 253.845C420.277 251.871 418.677 250.271 416.703 250.271C414.729 250.271 413.129 251.871 413.129 253.845C413.129 255.819 414.729 257.419 416.703 257.419Z" fill="#FD6F5C"/>
<path opacity="0.3" d="M329.495 257.419C331.469 257.419 333.069 255.819 333.069 253.845C333.069 251.871 331.469 250.271 329.495 250.271C327.521 250.271 325.921 251.871 325.921 253.845C325.921 255.819 327.521 257.419 329.495 257.419Z" fill="#FD6F5C"/>
</g>
<defs>
<clipPath id="clip0">
<rect width="768" height="417.622" fill="white"/>
</clipPath>
</defs>
</svg>
