<svg width="16" height="16" viewBox="0 0 16 16" fill="none" xmlns="http://www.w3.org/2000/svg">
<path d="M15.8486 15.1295L11.7176 11.0646C12.7994 9.8893 13.464 8.33495 13.464 6.62455C13.4635 2.96568 10.4498 0 6.73194 0C3.01407 0 0.000366211 2.96568 0.000366211 6.62455C0.000366211 10.2834 3.01407 13.2491 6.73194 13.2491C8.33832 13.2491 9.81166 12.6935 10.9689 11.7697L15.1159 15.8507C15.318 16.0498 15.646 16.0498 15.8481 15.8507C16.0506 15.6517 16.0506 15.3286 15.8486 15.1295ZM6.73194 12.2299C3.58622 12.2299 1.03611 9.72029 1.03611 6.62455C1.03611 3.52881 3.58622 1.01923 6.73194 1.01923C9.8777 1.01923 12.4278 3.52881 12.4278 6.62455C12.4278 9.72029 9.8777 12.2299 6.73194 12.2299Z" fill="#94A4BA"/>
</svg>
