<svg width="12" height="12" viewBox="0 0 12 12" fill="none" xmlns="http://www.w3.org/2000/svg">
<path d="M6.0009 0C4.28661 0 2.88525 1.40135 2.88525 3.11565C2.88525 4.82995 4.28661 6.2313 6.0009 6.2313C7.71519 6.2313 9.11654 4.82995 9.11654 3.11565C9.11654 1.40135 7.71519 0 6.0009 0Z" fill="#F3F7FB"/>
<path d="M11.3484 8.72108C11.2667 8.51699 11.1579 8.32652 11.0355 8.14964C10.4096 7.22446 9.44364 6.61222 8.3552 6.46256C8.21916 6.44897 8.0695 6.47615 7.96064 6.55779C7.38921 6.97957 6.70895 7.19725 6.00145 7.19725C5.29395 7.19725 4.61369 6.97957 4.04226 6.55779C3.93341 6.47615 3.78374 6.43535 3.6477 6.46256C2.55926 6.61222 1.57968 7.22446 0.967442 8.14964C0.844994 8.32652 0.73614 8.53061 0.654525 8.72108C0.613718 8.80272 0.627312 8.89795 0.668119 8.97959C0.776973 9.17006 0.913015 9.36056 1.03546 9.52381C1.22593 9.78233 1.43002 10.0136 1.66132 10.2313C1.85179 10.4218 2.06947 10.5986 2.28718 10.7755C3.362 11.5782 4.65453 12 5.98786 12C7.32119 12 8.61372 11.5782 9.68854 10.7755C9.90622 10.6122 10.1239 10.4218 10.3144 10.2313C10.5321 10.0136 10.7498 9.7823 10.9403 9.52381C11.0763 9.34694 11.1988 9.17006 11.3076 8.97959C11.3756 8.89795 11.3892 8.80269 11.3484 8.72108Z" fill="#F3F7FB"/>
</svg>
